<?xml version="1.0" standalone="no"?>
<!DOCTYPE svg PUBLIC "-//W3C//DTD SVG 1.1//EN" "http://www.w3.org/Graphics/SVG/1.1/DTD/svg11.dtd" >
<svg xmlns="http://www.w3.org/2000/svg">
<metadata></metadata>
<defs>
<font id="kraftstoffregular" horiz-adv-x="665" >
<font-face units-per-em="2048" ascent="1638" descent="-410" />
<missing-glyph horiz-adv-x="409" />
<glyph horiz-adv-x="2048" />
<glyph horiz-adv-x="2048" />
<glyph unicode="&#xd;" horiz-adv-x="2048" />
<glyph unicode=" "  horiz-adv-x="409" />
<glyph unicode="&#x09;" horiz-adv-x="409" />
<glyph unicode="&#xa0;" horiz-adv-x="409" />
<glyph unicode="!" horiz-adv-x="231" d="M51 1405l15 -1051q0 -71 49 -71q16 0 33.5 10t17.5 29l14 1101q0 23 -18.5 34t-44.5 11q-66 0 -66 -63zM53 82q0 -30 9.5 -56t27.5 -26q31 0 56.5 9.5t25.5 29.5v86q0 21 -20.5 34t-49.5 13q-30 0 -39.5 -16t-9.5 -74z" />
<glyph unicode="&#x22;" horiz-adv-x="397" d="M51 1473q17 -125 17 -156q0 -68 34 -68q21 0 38.5 20.5t17.5 37.5q0 11 4 89t4 93q0 41 -68 41q-27 0 -37 -14.5t-10 -42.5zM231 1473q13 -125 13 -156q0 -24 10.5 -46t28.5 -22q20 0 36.5 20.5t16.5 37.5q0 11 5 89t5 93q0 41 -67 41q-28 0 -38 -14.5t-10 -42.5z" />
<glyph unicode="#" horiz-adv-x="1220" d="M53 416q5 26 22 46.5t42 20.5h202q0 3 14 113.5t19 161.5h-180q-37 0 -54.5 11.5t-13.5 45.5q4 36 19.5 51t44.5 15h203q22 187 22 204q5 23 32.5 48.5t53.5 25.5q25 0 33.5 -27.5t3.5 -60.5q0 -24 -18 -190h282q21 178 21 204q3 23 31 48.5t57 25.5q25 0 33.5 -27.5 t3.5 -60.5q0 -14 -23 -190h205q22 0 43.5 -24t17.5 -50q-5 -49 -96 -49h-184q-29 -208 -37 -275h201q24 0 45 -25t20 -52q-4 -25 -33.5 -37.5t-62.5 -12.5h-188l-21 -180q-5 -37 -19.5 -57.5t-48.5 -20.5q-36 0 -50 14t-9 42q0 29 25 202h-283l-25 -180q-4 -78 -67 -78 q-36 0 -50.5 14t-9.5 42q0 4 3.5 30t10 75t11.5 97h-180q-37 0 -56 13t-12 47zM444 483h281q27 189 37 275h-283q-6 -41 -17.5 -136.5t-17.5 -138.5z" />
<glyph unicode="$" horiz-adv-x="681" d="M51 1204q0 110 63.5 180t176.5 84v82q0 64 43 64q59 0 59 -45v-103q76 -12 132.5 -55.5t82.5 -110.5q2 -10 2 -16q-48 -32 -90 -37q-14 7 -17.5 10t-6.5 11q-29 76 -103 94v-483q93 -104 146 -192.5t75 -192.5q45 -238 -32 -369q-57 -101 -189 -127v-113 q0 -20 -19.5 -29.5t-45.5 -9.5q-37 0 -37 72v72q-4 1 -11.5 2t-11.5 2q-83 10 -139.5 56t-73.5 116q22 25 47 33q16 4 32 4.5t24 -1.5l8 -1l2 -2q4 -29 18.5 -50t34 -32t35 -16t31.5 -7h4v731q-28 35 -53 60q-3 3 -13.5 15t-17.5 18q-39 42 -57.5 64t-46.5 62t-40 79t-12 81 zM168 1204q0 -47 33 -98t90 -115v375q-123 -21 -123 -162zM393 104q55 19 82 66q35 59 39.5 148.5t-14.5 156.5q-20 96 -107 221v-592z" />
<glyph unicode="%" horiz-adv-x="1275" d="M51 1036l416 176v-176q0 -55 -31 -96t-77 -59t-100 -18.5t-100 18t-77 59t-31 96.5zM138 1205l1 -11v-137q2 -1 0 -12t4.5 -28t16.5 -33t36.5 -28t63.5 -12q40 0 67 11.5t37 28t14 33.5t2 29l-1 11v137q1 4 2 11.5t-3 25.5t-14 32t-37 25.5t-67 11.5q-37 0 -63.5 -11 t-37 -26.5t-16 -31t-5.5 -26.5zM268 57q-23 -66 11 -77q19 -11 51.5 -4t38.5 24q4 9 322 724t323 728q9 17 -4 35.5t-41 30.5q-41 22 -66 -37zM809 217l416 176v-176q0 -48 -23 -85t-59.5 -56.5t-81 -29t-89 -0.5t-81 28.5t-59.5 57t-23 85.5zM896 386l1 -11v-137 q2 -1 0 -12t4.5 -28t16.5 -33t36.5 -28t63.5 -12q40 0 67 11.5t37 28.5t14 33.5t2 27.5l-1 12v137q1 4 2 11.5t-3 25.5t-14 32t-37 25.5t-67 11.5q-37 0 -63.5 -11t-37 -26.5t-16 -31t-5.5 -26.5z" />
<glyph unicode="&#x26;" horiz-adv-x="1153" d="M102 414q0 46 12.5 87.5t28 70t48 63.5t54 53.5t64.5 54.5q74 59 113 101q-103 262 -103 469q0 86 70 135q51 45 131 45q72 0 125 -43q57 -52 57 -137q0 -251 -106 -426q-30 -43 -47 -62q91 -187 203 -348q75 -107 122 -164q65 147 68 322q49 25 109 8q-3 -246 -105 -418 q60 -74 105 -119q-8 -37 -33 -65q-15 -16 -33 -23q-49 49 -100 115q-72 -80 -166.5 -124t-192.5 -44q-173 0 -295 119q-129 123 -129 330zM209 414q0 -154 98 -252q94 -88 219 -88q161 0 279 137q2 0 3 1t1.5 2.5t1.5 2.5q-94 119 -147 197q-128 191 -193 329 q-19 -17 -50.5 -45.5t-41.5 -38.5q-32 -27 -41.5 -34.5t-34.5 -30.5t-33 -33.5t-24 -31t-21.5 -36t-10.5 -36.5t-5 -43zM424 1313q0 -167 76 -371l4 4q94 151 94 367q0 26 -23 53q-18 18 -55 18q-35 0 -65.5 -17.5t-30.5 -53.5z" />
<glyph unicode="'" horiz-adv-x="217" d="M51 1391q12 -125 12 -156q0 -24 10.5 -46t28.5 -22q20 0 37 20.5t17 37.5q0 11 5 89t5 93q0 41 -68 41q-28 0 -37.5 -14.5t-9.5 -42.5z" />
<glyph unicode="(" horiz-adv-x="364" d="M51 141v1164q0 96 74.5 149t177.5 53q23 -43 0 -94q-34 0 -60.5 -7.5t-42 -19t-26.5 -26t-15 -28.5t-6 -25.5t-1 -18.5v-8v-1114q0 -3 -0.5 -7.5t1.5 -18t6 -26t15 -27.5t26.5 -26t42 -18.5t60.5 -7.5q10 -23 10 -46.5t-5 -35.5l-5 -12q-103 -2 -177.5 51t-74.5 149z" />
<glyph unicode=")" horiz-adv-x="364" d="M51 1459.5q0 23.5 5 35.5l5 12q103 0 177.5 -53t74.5 -149v-1164q0 -96 -74.5 -149t-177.5 -51q-23 43 0 94q46 0 79 13.5t46.5 32.5t20.5 38.5t7 32.5l-1 14v1114q0 3 0.5 7.5t-1.5 18.5t-6.5 26.5t-15 28t-26.5 26.5t-42.5 18.5t-60.5 7.5q-10 23 -10 46.5z" />
<glyph unicode="*" horiz-adv-x="436" d="M51.5 1033.5q-2.5 18.5 11.5 29.5q24 20 66 45q-60 40 -66 45q-26 24 7 66q8 13 19.5 14.5t19.5 -2t26 -14.5l37 -31q1 -1 0.5 15t-1 33t0.5 26q1 18 17 26.5t40 5.5q16 -1 23 -10.5t7.5 -17t0.5 -29.5v-41q13 9 34.5 22t24.5 15q18 9 34.5 -0.5t25.5 -30.5 q18 -32 -31 -59l-61 -33l61 -35q24 -13 31.5 -26t-0.5 -33q-25 -45 -60 -31q-4 3 -14.5 9.5t-22.5 14.5t-22 15v-45q3 -27 -2.5 -40.5t-28.5 -14.5q-54 -4 -57 30q-3 27 0 76l-37 -24q-16 -12 -25.5 -17t-20 -3.5t-19.5 13.5q-16 18 -18.5 36.5z" />
<glyph unicode="+" horiz-adv-x="1048" d="M51 659q0 43 72 43h342v375q0 20 23.5 29.5t52.5 9.5q43 0 43 -72v-342h350q63 0 63 -49q0 -69 -45 -69h-368v-351q0 -63 -49 -63q-70 0 -70 45v369h-375q-20 0 -29.5 23t-9.5 52z" />
<glyph unicode="," horiz-adv-x="266" d="M51.5 -115.5q1.5 12.5 2.5 21t4.5 23t5 21.5t5.5 20t5 16q1 4 -10 20t-9 33q3 10 7.5 23.5l7.5 22.5t4 15q10 27 39.5 33.5t62.5 -6.5q33 -10 37.5 -38t-10.5 -62q-31 -99 -45 -140q-27 -81 -80 -63q-8 3 -14 8.5t-8.5 14t-4 17t0 21z" />
<glyph unicode="-" horiz-adv-x="970" d="M51 604q0 -29 9.5 -52.5t29.5 -23.5h784q23 0 34.5 20t11.5 50q0 49 -64 49h-733q-72 0 -72 -43z" />
<glyph unicode="." horiz-adv-x="272" d="M51 90q0 -39 12.5 -73.5t36.5 -34.5q49 0 85 12.5t36 38.5v114q0 28 -29 45t-75 17q-40 0 -53 -21t-13 -98z" />
<glyph unicode="/" horiz-adv-x="862" d="M61 18q-23 -66 11 -77q19 -11 51.5 -4t38.5 24q4 9 322 724t323 728q9 17 -4 35.5t-41 30.5q-41 22 -66 -37z" />
<glyph unicode="0" horiz-adv-x="653" d="M52.5 776.5q3.5 98.5 17.5 198.5q34 215 62.5 309.5t66.5 116.5q22 12 52.5 21.5t50.5 12.5l20 3q75 0 140.5 -47.5t74.5 -120.5q2 -16 23.5 -139t34.5 -264.5t5 -280.5q-32 -452 -98 -533q-21 -27 -57 -45t-87.5 -22.5t-111.5 16.5q-41 15 -72 53.5t-47 88t-23 83.5 t-10 66q-1 4 -10.5 57.5t-16 109.5t-12.5 137t-2.5 179.5zM164 809q-6 -136 4 -267t29 -219t38 -146t33 -75q32 -30 63 -27t56.5 28.5t42.5 66.5q43 100 59 485q3 98 -7 259t-17 178q-5 10 -16 89t-13 87q-7 24 -34.5 47.5t-61.5 23.5q-153 0 -176 -530z" />
<glyph unicode="1" horiz-adv-x="317" d="M51 1235.5q0 -9.5 0.5 -15t3.5 -19t4 -17.5q1 -21 18.5 -30t35.5 -9q9 0 14 -0.5t12 -4t10 -12t3 -22.5v-1057q0 -22 16.5 -36.5t42.5 -14.5q5 0 15 -0.5t13 0t9.5 1.5t8.5 4t5 8t3.5 13t0.5 19v1331q0 64 -39 64h-34q-14 0 -22 -3.5t-14.5 -18t-6.5 -42.5 q0 -37 -27.5 -65t-56.5 -43q-7 -7 -11 -14t-4 -16.5z" />
<glyph unicode="2" horiz-adv-x="638" d="M51 1217q0 -27 27.5 -36t55.5 -1.5t28 20.5q0 44 48.5 86.5t111.5 42.5q58 0 93.5 -26.5t44.5 -63t8 -68t-9 -49.5q-1 -3 -47 -106t-101.5 -230.5t-114.5 -262.5t-98 -230t-39 -105v-139q0 -26 21 -38.5t49 -12.5h422q20 0 28.5 30t0.5 60.5t-27 30.5h-360q-14 0 -19 9.5 t-3 20t7 21.5q16 49 383 909q59 140 -7 240.5t-200 114.5q-122 17 -212.5 -50.5t-90.5 -166.5z" />
<glyph unicode="3" horiz-adv-x="661" d="M55 53q-7 -27 1 -51t21.5 -34t20.5 -3q108 63 199 145t146.5 157.5t95 150t55.5 125.5t16 80q0 46 -18.5 83.5t-44.5 59t-56.5 36t-52 20t-32.5 5.5h-74q-11 0 -18 16.5t3 28.5q6 6 72.5 105t129.5 195l63 96q23 32 12.5 95.5t-41.5 63.5h-455q-30 0 -36.5 -9t-6.5 -34 v-73q0 -9 1 -14t8 -10t20 -5q5 0 23 14.5t34 14.5h308q12 0 14 -2t2 -13q-8 -7 -147.5 -219.5t-147.5 -220.5v-72q0 -43 47 -43h158q59 0 94 -31.5t25 -86.5q-33 -106 -89 -200.5t-113.5 -156.5t-109.5 -107.5t-88 -72.5t-39 -33z" />
<glyph unicode="4" horiz-adv-x="632" d="M55 504q-17 -47 23 -47h254q33 0 33 -17v-420q0 -17 28.5 -23.5t57 -2.5t28.5 12v397q0 41 13 41h53q14 0 25.5 7.5t11.5 15.5v43q0 41 -27 41h-49q-21 0 -21 16v865q0 22 -60 19t-60 -19v-844q0 -37 -27 -37h-117q-16 0 -24.5 1.5t-11 3.5t-1.5 5q20 59 37 180 q17 111 18.5 239.5t-3.5 193t-11 104.5q0 28 -13 40.5t-28 12.5h-43q-32 0 -32 -26q16 -171 16 -318q0 -95 -28.5 -271.5t-41.5 -211.5z" />
<glyph unicode="5" horiz-adv-x="645" d="M70 4q3 -8 7 -12t11 -3t10.5 2t14.5 6t16 7q192 130 328.5 308t136.5 292q0 120 -53.5 184t-151.5 64h-180q-31 0 -31 12v408q0 15 1 22.5t4.5 17t13.5 13.5t26 4h355q8 0 10.5 26.5t-4 52.5t-19.5 26h-428q-26 0 -43.5 -10.5t-17.5 -32.5v-598q0 -13 4 -22t9 -13.5 t16.5 -6.5t19.5 -2.5t25 -0.5h239q15 0 29.5 -4.5t33 -16.5t29.5 -40.5t11 -70.5q0 -64 -41 -140t-98.5 -139t-120.5 -118.5t-106 -87t-56 -37.5q-33 -17 0 -90z" />
<glyph unicode="6" horiz-adv-x="655" d="M51 287v329q0 58 7.5 158.5t7.5 124.5q11 56 30.5 108.5t42 94.5t51.5 81t56.5 67.5t59.5 56t57 45t53.5 34.5t44.5 25t33 17l18 8q27 6 40 -18t9.5 -52.5t-18.5 -34.5q-71 -34 -130 -80.5t-96.5 -92.5t-66 -97t-43.5 -92t-24 -79t-11 -56t-2 -25q0 -29 16 -29 q89 45 150 45q60 0 107.5 -17t77 -44t49 -65t27 -76.5t7.5 -81.5v-269q-5 -45 -13 -81t-27 -75t-47 -65.5t-74.5 -43.5t-106.5 -17t-109 20t-79 50.5t-51.5 72t-31 78.5t-14.5 76zM170 272q11 -79 50.5 -114t96.5 -49q160 0 160 163q0 13 3 102.5t3 166.5q0 48 -14 82.5 t-36 51t-42.5 23.5t-40.5 7q-39 0 -67 -8.5t-56 -31.5t-42.5 -73t-14.5 -125v-195z" />
<glyph unicode="7" horiz-adv-x="638" d="M51 1321q0 -15 7 -24.5t21 -13t23 -4.5t25 -1t16 43q0 12 11.5 21.5t31.5 9.5h258q22 0 24 -2.5t-9 -14.5q0 -5 -10 -26.5t-44.5 -101.5t-78.5 -193q-50 -132 -83 -294t-45 -312.5t-15 -224t-3 -136.5q0 -40 26 -51t52 -2l27 8v104q0 186 24 365.5t54 299t72 233 t64.5 159t43.5 84.5q7 15 18.5 36t15.5 29.5t7.5 22.5t3.5 29q0 49 -13.5 66.5t-46.5 17.5h-422q-36 0 -45.5 -4.5t-9.5 -26.5v-96z" />
<glyph unicode="8" horiz-adv-x="634" d="M57 510q7 63 23 125t34 106.5t35 79.5t28 54t11 20q-3 3 -7.5 9.5t-16.5 28.5t-21 46.5t-16.5 65t-7.5 83.5q0 123 52 209t142 86q97 0 157 -76t60 -194q0 -83 -19 -154.5t-32.5 -104.5t-5.5 -42q5 -7 12 -20t26.5 -53t34 -81.5t26.5 -101t12 -115.5q-3 -49 -7.5 -90 t-14 -92.5t-22.5 -91t-33.5 -79.5t-46.5 -66.5t-63 -43t-82 -16.5q-152 0 -217.5 135.5t-40.5 372.5zM143 362q0 -112 46.5 -182.5t105.5 -70.5q45 0 77.5 19t49 38.5t28 70.5t14 75t6.5 92q1 9 1.5 14t1 12.5t0.5 13.5q6 70 -5.5 139.5t-32 118t-45.5 79t-46 30.5 q-53 0 -93 -41.5t-63 -109.5t-34 -144t-11 -154zM214 1170q0 -30 1 -44.5t4 -44.5q6 -59 41.5 -101.5t69.5 -39.5q51 6 76.5 72t19.5 145q0 46 -8 79t-20 46.5t-26.5 22t-26.5 7t-21 -0.5q-31 -6 -52.5 -19.5t-33 -35t-18 -39t-6.5 -47.5z" />
<glyph unicode="9" horiz-adv-x="659" d="M51 887v268q6 58 19.5 102.5t41.5 89.5t81.5 70t128.5 25q61 0 110 -20.5t79 -51.5t51.5 -73t31 -79t14.5 -77v-332q0 -59 -7 -160t-7 -125q-20 -104 -70 -195t-98 -144.5t-116 -102.5t-95 -63t-64 -31l-8 -4q-27 -6 -40 18t-9 52.5t19 35.5q72 34 131 80.5t97 93 t67 97.5t43.5 92t24 79t11.5 56.5t2 25.5q0 31 -18 31q-88 -47 -149 -47t-109 17t-78 45t-49.5 66.5t-27 77.5t-7.5 83zM174 887q0 -48 13.5 -83t35.5 -52t43 -24t41 -7q39 0 67.5 8.5t56.5 32t43 73.5t15 126v194q-12 81 -52.5 116.5t-96.5 49.5q-162 0 -162 -166 q0 -13 -2 -102.5t-2 -165.5z" />
<glyph unicode=":" horiz-adv-x="260" d="M51 317q0 -39 12.5 -73.5t36.5 -34.5q40 0 74.5 13t34.5 38v115q0 27 -27 44t-65 17q-40 0 -53 -21t-13 -98zM51 932q0 -39 12.5 -74t36.5 -35q40 0 74.5 13t34.5 38v115q0 27 -27 44.5t-65 17.5q-40 0 -53 -21t-13 -98z" />
<glyph unicode=";" horiz-adv-x="276" d="M51.5 -115.5q1.5 12.5 2.5 21t4.5 23t5 21.5t5.5 20t5 16q1 4 -10 20t-9 33q3 10 7.5 23.5l7.5 22.5t4 15q10 27 39.5 33.5t62.5 -6.5q33 -10 37.5 -38t-10.5 -62q-31 -99 -45 -140q-27 -81 -80 -63q-8 3 -14 8.5t-8.5 14t-4 17t0 21zM68 563q0 -39 12.5 -73.5 t36.5 -34.5q40 0 74 13t34 38v115q0 27 -27 44t-65 17q-40 0 -52.5 -21t-12.5 -98z" />
<glyph unicode="&#x3c;" horiz-adv-x="770" d="M53.5 608q-8.5 -27 9.5 -39q19 -13 274.5 -158t283.5 -159q42 -22 79 18q22 20 19 42.5t-29 35.5l-454 252l454 242q25 14 28 36t-18 42q-36 39 -79 18l-533 -291q-26 -12 -34.5 -39z" />
<glyph unicode="=" horiz-adv-x="1048" d="M51 584q0 -29 9.5 -52.5t29.5 -23.5h862q45 0 45 70q0 49 -63 49h-811q-72 0 -72 -43zM51 868q0 -29 9.5 -52t29.5 -23h862q45 0 45 69q0 49 -63 49h-811q-72 0 -72 -43z" />
<glyph unicode="&#x3e;" horiz-adv-x="770" d="M51 310.5q-3 -22.5 19 -42.5q37 -40 80 -18q28 14 283 159t274 158q18 12 9.5 39t-34.5 39q-507 281 -532 293q-44 21 -80 -18q-21 -20 -18 -42t28 -36l455 -244l-455 -252q-26 -13 -29 -35.5z" />
<glyph unicode="?" horiz-adv-x="696" d="M55 1313q31 27 54.5 45t59.5 43.5t68.5 39.5t70.5 25.5t78.5 10t80.5 -14.5q42 -15 83.5 -52t63.5 -79q28 -56 31 -128.5t-20 -137.5q-7 -23 -19 -51t-18.5 -41t-26.5 -50.5t-22 -41.5q-8 -16 -36 -66.5t-42.5 -84.5t-20.5 -68q-19 -101 -22 -184t2 -179q-54 -36 -115 -2 q-3 125 3.5 202t37.5 185q35 122 92 238q52 96 78 172q17 50 14.5 102t-22.5 92q-28 54 -82 72q-25 8 -49 8.5t-45.5 -6.5t-40.5 -17t-39 -25t-36.5 -29t-36.5 -30.5t-36 -27.5q-22 -18 -69 29q-11 11 -18.5 27.5t-0.5 23.5zM307 82q0 -30 9.5 -56t27.5 -26q31 0 56.5 9.5 t25.5 29.5v86q0 21 -20.5 34t-49.5 13q-30 0 -39.5 -16t-9.5 -74z" />
<glyph unicode="@" horiz-adv-x="1636" d="M133 740q60 222 232 376q170 152 383.5 184.5t422.5 -61.5q102 -47 177.5 -117.5t117.5 -148t63 -165.5t20.5 -168.5t-17.5 -158.5q-37 -174 -132 -282.5t-210 -108.5q-106 0 -164 51q-6 -2 -27 -2q-143 0 -204 6q-17 2 -35.5 7.5t-44 19.5t-47 33.5t-41 52.5t-30 74.5 t-9.5 101.5t16 131q21 79 80 142q113 90 242 124q-17 39 -62 74l-24 19q-37 18 -64 18q-21 10 -28 25v43q7 24 28 32q98 0 166 -57q54 -46 81.5 -104t33.5 -148l-2 -393q6 -86 34.5 -119t100.5 -33q75 0 145 90.5t99 225.5q15 69 16 139.5t-16.5 144.5t-53.5 138.5t-100 123 t-150 97.5q-182 83 -366 54.5t-332 -161.5q-153 -137 -204.5 -327t12.5 -381q87 -280 338 -395q95 -45 206 -64t188 -16t134 16q1 -4 7.5 -20t10.5 -27q6 -27 6 -51q-86 -19 -186 -19q-229 0 -409 88q-288 139 -390 457q-72 217 -12 439zM690 395q15 -68 62.5 -116 t115.5 -48q53 0 70.5 11t17.5 51v389q4 21 0 31q-2 8 -13 14t-25 6q-53 0 -101 -34.5t-78 -86t-44 -110.5t-5 -107z" />
<glyph unicode="A" horiz-adv-x="675" d="M51 33q0 20 88.5 692.5t93.5 699.5q10 37 41 37h127q16 0 27.5 -10t11.5 -27q5 -18 95 -694t90 -698q0 -37 -43 -37q-58 0 -64 31q0 5 -6.5 55t-20.5 155t-26 201q-6 23 -21 23h-213q-14 0 -20 -23q-12 -96 -26 -201t-20.5 -155t-6.5 -55q-4 -31 -64 -31q-43 0 -43 37z M243 594q5 -6 29 -6h131q23 0 29 6q3 3 3 9q0 8 -3 22q-19 144 -41.5 331t-34 286t-14.5 99h-8q-3 0 -14.5 -99t-34 -286t-41.5 -331q-3 -14 -3 -22q0 -7 2 -9z" />
<glyph unicode="B" horiz-adv-x="634" d="M51 82l2 1323q0 32 13.5 46.5t42.5 14.5q150 0 213 -6q16 -2 34.5 -7.5t44 -19.5t47 -34t41.5 -54q21 -33 31 -75q10 -40 10 -97v-6q0 -61 -16 -133q-13 -49 -37.5 -89t-46 -59t-37.5 -34.5t-16 -22.5q0 -4 21.5 -26t51.5 -60.5t60.5 -90t52 -130t21.5 -164.5 q0 -146 -81 -246.5t-188 -109.5q-37 -2 -79 -4q-31 -1 -54 -2h-14q-27 0 -54 1t-28 1q-14 0 -24.5 23t-10.5 61zM152 905q0 -47 41 -47q15 0 51.5 20.5t78.5 55.5t73.5 92.5t31.5 120.5q0 64 -18 110.5t-47 70t-58.5 34t-58.5 10.5q-57 0 -75.5 -10.5t-18.5 -50.5v-406z M158 149q0 -6 2.5 -19t7.5 -18t15.5 -9.5t25.5 -4.5q21 0 48 4.5t67 20.5t72.5 41t57.5 71.5t29 106.5q1 13 1 26q0 62 -20 124q-24 74 -59.5 125.5t-62.5 81.5t-41 40q-6 3 -15.5 8t-33.5 13q-20 6 -38 6h-6q-19 -2 -34.5 -20.5t-15.5 -55.5v-518v-23z" />
<glyph unicode="C" horiz-adv-x="630" d="M51 231v996v11q0 90 61 152q65 66 167 78q22 3 43 3q94 0 168 -55q90 -67 90 -163q0 -27 -29 -36.5t-57.5 -1t-28.5 23.5q0 41 -47 84t-109 43q-72 0 -110.5 -42t-40.5 -93v-1000q2 -52 40 -93.5t111 -41.5q62 0 109 42.5t47 82.5q0 15 28.5 24t57.5 -0.5t29 -37.5 q0 -95 -90 -161q-75 -56 -172 -56q-19 0 -39 2q-101 12 -167 78q-62 63 -61 150v11z" />
<glyph unicode="D" horiz-adv-x="620" d="M51 49v1368q0 25 6.5 37t26.5 16h10q174 0 254 -10q36 -4 66 -13.5t51.5 -21.5t38.5 -31t28 -34.5t18.5 -39t11.5 -39t6 -40.5t2 -36.5t-0.5 -33.5t-0.5 -26v-821q0 -5 0.5 -27t0.5 -33.5t-2 -36t-6 -40t-11.5 -39t-18.5 -39.5t-28 -34.5t-38.5 -30.5t-51.5 -22t-66 -14 q-80 -8 -244 -8h-6h-4h-10q-20 3 -26.5 14t-6.5 35zM154 154q0 -39 34 -39q1 0 18 -1h36h20h23q25 0 43 1q28 3 50 10.5t36.5 16t24 23t14.5 25t7 29.5t2 29.5t-0.5 32t-0.5 30.5v846q0 9 0.5 30t0.5 31.5t-2 29.5t-7 29.5t-14.5 24.5t-24 22.5t-36.5 15.5t-50 10 q-18 2 -43 2h-23h-20q-18 0 -35.5 -1t-18.5 -1q-34 0 -34 -43v-1153z" />
<glyph unicode="E" horiz-adv-x="616" d="M51 55v1352q0 26 7 38.5t28 18.5h10h461q8 -3 8 -19q-1 -5 -1 -11q-4 -26 -18.5 -57t-27.5 -31h-315q-35 0 -35 -43v-357q0 -12 1.5 -19t9 -12.5t22.5 -5.5h196q27 0 29.5 -30.5t-13.5 -61.5t-32 -31h-178q-35 0 -35 -28v-598q0 -43 35 -43h313q13 0 27.5 -30.5t17 -56.5 t-9.5 -30h-447h-4h-4h-10q-21 4 -28 16.5t-7 38.5z" />
<glyph unicode="F" horiz-adv-x="571" d="M51 35q0 -23 7 -34t14 -12t24 -1q19 0 44.5 13.5t25.5 27.5v721q0 24 37 24h166q15 0 31 31q13 27 14 54v9q-2 32 -31 31h-182q-22 0 -28.5 10t-6.5 27v364q0 46 37 46h270q14 0 29 30t18 56q1 6 1 10q0 17 -9 20h-406q-36 0 -45.5 -11.5t-9.5 -43.5v-1372z" />
<glyph unicode="G" horiz-adv-x="630" d="M51 201v1036v8q0 92 62 155q65 65 168 79q24 3 47 3q91 0 162 -54q90 -68 90 -164q0 -27 -28 -36t-55.5 -1.5t-27.5 22.5q0 42 -47.5 84.5t-108.5 42.5q-76 0 -114.5 -41.5t-40.5 -95.5v-1040q2 -54 40.5 -97t114.5 -43q59 0 106.5 42.5t49.5 82.5v365q0 9 -6 14.5 t-14 5.5h-82q-26 0 -46 9t-20 30t20 47.5t35 26.5q49 12 90.5 12t75.5 -12q29 -11 43.5 -46t14.5 -64v-29v-369v-2v-4v-8q-6 -92 -94 -154q-72 -50 -161 -50q-21 0 -44 3q-103 12 -168 77q-62 63 -62 156v9z" />
<glyph unicode="H" horiz-adv-x="643" d="M51 33v1382q0 58 49 58q29 0 47.5 -10t18.5 -31v-508q0 -13 0.5 -19.5t5.5 -13.5t14 -8h277q18 3 18 24v508q0 58 45 58q66 0 66 -41v-1405q0 -14 -23.5 -26.5t-46.5 -12.5q-39 0 -39 51v694q-3 35 -34 35h-246q-19 0 -27.5 -5t-9.5 -20v-718q0 -16 -24 -27.5t-48 -11.5 q-21 0 -32 13t-11 34z" />
<glyph unicode="I" horiz-adv-x="215" d="M51 43q0 -22 8 -30.5t31 -8.5q74 0 74 29v1405q0 20 -19 30.5t-49 10.5q-27 0 -36 -15t-9 -45v-1376z" />
<glyph unicode="J" horiz-adv-x="528" d="M55 29q-5 12 -5 23q0 22 20 42q14 15 30 20t26 3l9 -2q36 -25 80 -25q75 0 112.5 39.5t41.5 91.5v1213q-5 32 18 32h68q13 0 18.5 -16t4.5 -32l-1 -15v-1180v-11q0 -88 -61 -148q-65 -64 -166 -78q-21 -3 -41 -3q-83 0 -154 46z" />
<glyph unicode="K" horiz-adv-x="663" d="M51 41v1386q0 29 9.5 38.5t45.5 9.5h7t14.5 -2t19 -5t15 -11t6.5 -19v-582q0 -2 2 -4l319 598q3 2 8.5 5.5t24 7.5t37.5 1t28.5 -9.5t10.5 -11.5t0 -9l-338 -625l346 -770l6 -21v-8t-9.5 -14.5t-27.5 -13.5q-4 -1 -8 -1q-14 1 -30 9q-20 10 -31 22l-10 11l-289 645 l-39 -88v-555q0 -17 -15.5 -26.5t-30.5 -10.5h-16q-36 0 -45.5 11t-9.5 42z" />
<glyph unicode="L" horiz-adv-x="583" d="M51 53v1360q0 26 6 37.5t29 15.5q8 0 26 2h6q15 0 29 -7q17 -8 17 -25v-1282q0 -25 9.5 -34t27.5 -9h309q13 0 19 -28q3 -16 3 -32q0 -13 -2 -25q-4 -28 -18 -28h-426q-23 3 -29 15t-6 40z" />
<glyph unicode="M" horiz-adv-x="747" d="M51 33v1401q-1 17 9.5 24.5t26.5 6.5t32 -4t27 -7l12 -4v-2l204 -504q206 443 226 502q10 20 80 20q11 0 18 -9t8 -18l2 -9l-4 -1397q0 -43 -35 -43q-24 0 -46.5 9.5t-22.5 25.5v1099l-182 -364q-10 -21 -42.5 -26t-39.5 7q0 4 -42 100.5t-83.5 191.5t-40.5 91v-1099 q0 -16 -23 -25.5t-47 -9.5q-37 0 -37 43z" />
<glyph unicode="N" horiz-adv-x="643" d="M51 1407v4q0 17 4 25q10 26 41 26h10h8q31 0 42 -20q6 -6 6 -21q12 -37 134 -452.5t187 -620.5l-2 1059q0 55 47 55q64 0 64 -41v-1382q0 -17 -25 -36t-47 -19q-10 0 -20 10q-16 13 -27 43q-3 8 -52.5 168t-129 417.5t-129.5 417.5v-1001q0 -17 -25 -36t-47 -19 q-37 0 -37 65z" />
<glyph unicode="O" horiz-adv-x="651" d="M51 199v1063q0 61 30.5 109t78.5 72.5t106 36.5q29 6 58 6q30 0 60 -6q59 -12 107 -37t78.5 -72.5t30.5 -108.5q-2 -12 -2 -277.5t2 -785.5q0 -61 -30.5 -108.5t-78.5 -72.5q-49 -24 -107 -36q-29 -6 -58.5 -6t-58.5 6q-59 12 -107 36t-78.5 72t-30.5 109zM160 223 q0 -6 1 -15.5t9.5 -34t24 -43.5t50 -34.5t81.5 -15.5q50 0 85 14.5t49 36t21 42.5t7 35l-1 15v1014q0 3 0.5 8t-1.5 19.5t-6.5 28t-15.5 30t-28 28t-45.5 19.5t-64.5 8q-47 0 -81.5 -14.5t-50 -35t-24 -41.5t-9.5 -35l-1 -15v-1014z" />
<glyph unicode="P" horiz-adv-x="649" d="M51 1413q0 31 9.5 42t45.5 11q184 0 236 -6q54 -6 96.5 -22t68.5 -39t45.5 -51t27.5 -58q8 -28 14 -58q5 -24 5 -45q-1 -5 -1 -11q-2 -26 0 -46v-18q-2 -2 0 -16q1 -4 1 -9q0 -13 -4 -32q-5 -27 -10.5 -58t-23.5 -65.5t-41 -64.5t-63 -55t-90 -36q-31 -6 -170 -6 q-11 0 -19 -7t-8 -20v-700q0 -15 -28 -35t-46 -20q-43 0 -43 63zM164 928q0 -35 35 -35h108q44 4 77 17t51 31t30.5 40.5t15 45.5t4.5 45q1 11 1 21t-1 19q-2 87 -10 118q-30 102 -156 116q-37 4 -118 4q-37 0 -37 -43v-379z" />
<glyph unicode="Q" horiz-adv-x="645" d="M51 203v1040q0 88 76 154t184 69h19q109 -3 184.5 -68.5t75.5 -154.5v-1040q0 -51 -27 -97.5t-76 -76.5q45 -21 71.5 -46.5t31.5 -43.5q4 -15 4 -29q0 -18 -7 -34q-12 -29 -29 -40q-10 -7 -15 -7q-4 0 -6 3q-126 139 -248 150q-102 3 -170 69t-68 152zM159 217 q0 -7 3 -16q3 -13 6.5 -27.5t16 -30t28.5 -27.5t44.5 -20t64.5 -8q48 0 82.5 14.5t49 35t22 41.5t7.5 35v15v990q0 3 1 8v2q0 6 -2 17q-2 15 -6.5 28.5t-16 30t-28.5 28t-45 19.5t-64 8q-46 0 -80 -14.5t-49 -35t-23.5 -41.5t-9.5 -35v-15v-990z" />
<glyph unicode="R" d="M51 37v1378q0 31 9.5 43t43.5 12q172 0 242 -8q41 -4 75.5 -15t59.5 -25t45 -35t32.5 -39.5t22 -45t14 -45t7.5 -46t3.5 -41t0.5 -37.5v-29q-2 -1 0 -15.5t-3 -41t-10.5 -57t-24 -65t-42 -64.5t-64 -54.5t-91.5 -36.5l243 -737q0 -4 -2 -9.5t-14 -15.5t-31 -12 q-18 -3 -37 4.5t-28 15.5l-10 9q-211 646 -234 712q-9 25 -27 25h-38q-29 0 -29 -25v-704q0 -16 -24 -27.5t-44 -11.5h-8h-8t-6.5 0.5t-6.5 1.5t-5.5 3t-4.5 5t-3 7.5t-2.5 11t-0.5 14.5zM164 924q0 -18 7 -27.5t28 -9.5h110q191 10 191 214v13q0 29 -1 46.5t-5.5 47.5 t-16.5 49.5t-30.5 40.5t-50.5 33.5t-74 16.5q-37 4 -121 4q-37 0 -37 -43v-385z" />
<glyph unicode="S" horiz-adv-x="616" d="M51 166l8 12q18 21 33 25q12 4 25 5.5t19 1.5l7 -1l2 -2q4 -27 15.5 -47.5t27.5 -31t28.5 -15.5t25.5 -7q18 -3 37 -3q31 0 65 9q54 15 74 58q31 62 31 162q0 60 -11 133q-18 111 -74 212t-141 212q-4 4 -12.5 15t-13.5 16q-71 94 -93 139q-34 68 -34 137q0 118 73.5 193 t184.5 75q76 0 141.5 -47t89.5 -123l2 -14q-48 -38 -88 -43q-14 10 -18 20q-15 46 -48.5 72.5t-78.5 26.5q-142 0 -142 -160q0 -29 10.5 -59.5t35.5 -69t37.5 -55t45.5 -58.5q106 -136 161.5 -239t76.5 -234q13 -80 12 -149q0 -121 -39 -205q-31 -62 -89.5 -98.5 t-127.5 -36.5q-70 0 -82 4q-67 10 -114.5 56.5t-61.5 113.5z" />
<glyph unicode="T" horiz-adv-x="706" d="M51 1399q0 22 21 44.5t39 22.5h501q43 0 43 -59q0 -49 -61 -49h-143q-35 0 -41 -29v-1304q0 -16 -21 -24.5t-47 -8.5q-42 0 -45 43v1302q0 23 -18 23h-158q-70 0 -70 39z" />
<glyph unicode="U" horiz-adv-x="655" d="M51 219v1225q-2 24 23 24h53q16 0 25 -7.5t10 -14.5v-8v-1196q2 0 0 -8t1.5 -21t7 -28.5t16.5 -31t29.5 -28.5t45.5 -21t66 -8q49 0 84.5 15t50.5 36.5t23 43t8 36.5v15v1198q0 13 7 20t14 8h7h56q13 0 19.5 -7t6.5 -14v-7v-1221v-2q0 -92 -77 -160t-189 -69h-21 q-111 1 -188.5 69.5t-77.5 161.5z" />
<glyph unicode="V" horiz-adv-x="684" d="M51 1434q0 39 43 39q60 0 64 -33q0 -1 18.5 -141t43.5 -332.5t51 -386.5t44.5 -328.5t20.5 -134.5h10q2 0 20.5 134.5t44.5 328.5t51 386.5t43.5 332.5t18.5 141q4 33 62 33q47 0 47 -39q0 -20 -90.5 -692.5t-96.5 -708.5q-8 -37 -38 -37h-132q-32 0 -40 37 q-6 35 -95.5 708t-89.5 693z" />
<glyph unicode="W" horiz-adv-x="1013" d="M51 1432q0 36 45 36q58 0 62 -32q1 -4 44 -335.5t87 -659.5t47 -328h8q3 0 109 786q-14 110 -33 252.5t-28 209t-9 71.5q0 36 45 36q57 0 61 -32q0 -2 18.5 -140.5t44 -331.5t51.5 -387t45.5 -329t21.5 -135h8q3 0 47 328t87 659.5t44 335.5q4 32 62 32q45 0 45 -36 q0 -20 -88.5 -686t-96.5 -717q-6 -35 -41 -35h-127q-37 0 -43 35q0 1 -61 458q-59 -442 -62 -458q-6 -35 -41 -35h-127q-34 0 -40 35q-8 51 -96.5 717t-88.5 686z" />
<glyph unicode="X" horiz-adv-x="657" d="M57 68l211 692l-211 631q-5 16 -5 28q0 30 30 41q24 8 40 8q29 0 36 -24q2 -4 45 -134t85 -257.5t42 -126.5q0 -1 41.5 126.5t84 257.5t44.5 134q7 24 35 24q16 0 40 -8q30 -11 30 -41q0 -13 -5 -28q-13 -40 -35 -105.5t-68.5 -204t-77 -230.5t-30.5 -91l211 -692 q5 -16 5 -29q0 -30 -30 -41q-23 -8 -40 -8q-28 0 -35 24l-170 582q-168 -572 -172 -582q-7 -24 -36 -24q-17 0 -40 8q-30 11 -30 41q0 13 5 29z" />
<glyph unicode="Y" horiz-adv-x="634" d="M57 1393q-5 15 -5 27q0 30 30 40q22 8 38 8q27 0 34 -24l163 -504l164 504q7 24 34 24q16 0 38 -8q30 -10 30 -40q0 -12 -5 -27l-205 -623v-745q0 -9 -25.5 -21t-46.5 -12q-32 0 -37 39v737z" />
<glyph unicode="Z" horiz-adv-x="684" d="M51 104l445 1205q7 22 1.5 27t-30.5 5h-344q-17 0 -27 31.5t-4 62.5t29 31h457q33 0 44 -9t11 -32v-53q0 -11 -1 -19.5t-2 -11.5t-5.5 -13t-6.5 -15l-436 -1159q-1 -2 -3 -7.5t-3 -8.5l-2.5 -7.5t-1 -7.5t2 -6t5.5 -4.5t10 -1.5h396q33 0 26 -44q-6 -40 -32 -61 q-9 -8 -17 -8h-483q-29 0 -29 106z" />
<glyph unicode="[" horiz-adv-x="362" d="M51 -176v1677q0 28 6 40t29 15h205q14 0 18.5 -28t-1.5 -56t-19 -28h-88q-18 0 -27.5 -9t-9.5 -34v-1477q0 -25 9.5 -34t27.5 -9h88q13 0 19 -28t1.5 -56t-18.5 -28h-205q-23 3 -29 15t-6 40z" />
<glyph unicode="\" horiz-adv-x="862" d="M55 1411q5 -13 323 -728t322 -724q6 -17 39 -24t52 4q33 11 10 77l-635 1424q-25 59 -66 37q-28 -12 -41 -30.5t-4 -35.5z" />
<glyph unicode="]" horiz-adv-x="362" d="M53.5 -208q-4.5 28 1.5 56.5t19 28.5h88q18 0 27.5 9t9.5 34v1477q0 25 -9.5 34t-27.5 9h-88q-13 0 -19 28t-1.5 56t18.5 28h204q23 -3 29 -15t6 -40v-1677q0 -28 -6 -40.5t-29 -15.5h-204q-14 0 -18.5 28z" />
<glyph unicode="^" horiz-adv-x="2109" />
<glyph unicode="_" horiz-adv-x="1126" d="M51 -43q0 -29 9.5 -52.5t29.5 -23.5h940q45 0 45 70q0 49 -63 49h-889q-72 0 -72 -43z" />
<glyph unicode="`" horiz-adv-x="409" d="M50.5 1493q-1.5 -23 19.5 -37q94 -65 215 -119q18 -8 38 1t27 22q12 21 5.5 39t-36.5 41l-163 102q-20 13 -33 18.5t-27.5 2t-25.5 -20.5q-18 -26 -19.5 -49z" />
<glyph unicode="a" horiz-adv-x="647" d="M51 328.5q0 70.5 17 152.5q33 115 98 174q126 108 280 148q-35 69 -69 92q-57 37 -105 37q-12 0 -21 8t-9 18l-4 35q0 13 9.5 25t22.5 12h17q96 0 178 -51q129 -81 129 -291l2 -620q0 -70 -64 -70l-239 2q-18 0 -40.5 5.5t-51 20t-54.5 37t-48 61t-35 86.5t-13 118.5z M170 362q0 -59 14 -105.5t36 -74t50.5 -45.5t54.5 -24.5t52 -6.5q63 0 84 12q18 11 18 47v11v490q0 24 -43 24q-20 0 -62 -23.5t-88.5 -63t-81 -105t-34.5 -136.5z" />
<glyph unicode="b" horiz-adv-x="675" d="M92 84v1524q0 37 55 37q24 0 39 -13.5t15 -36.5v-573q172 -42 315 -197q67 -78 92 -204q16 -103 16 -191q0 -4 1 -7q0 -83 -12 -141q-12 -60 -34 -109t-46.5 -77.5t-52.5 -48.5t-49.5 -27.5t-39.5 -9.5q-68 -12 -235 -12q-64 0 -64 86zM205 201q0 -63 21.5 -80t82.5 -17 q24 0 49.5 9t53.5 34t49.5 63.5t35.5 102.5t15 146v8q0 89 -22 163q-23 78 -57 124t-73 78.5t-67 44.5t-43 12q-28 0 -36.5 -9.5t-8.5 -41.5v-637z" />
<glyph unicode="c" d="M51 272v480v11q1 105 71 177q74 76 191 90q25 3 49 3q59 1 111 -17q74 -24 121 -76q17 -17 19 -33v-5q-1 -14 -9 -24q-10 -12 -22.5 -20.5t-26.5 -13.5q-14 -8 -29.5 -4t-23.5 9t-21 15.5t-22 14.5q-50 32 -107 32q-88 0 -132 -47.5t-46 -109.5v-484q2 -62 46 -109.5 t132 -47.5q33 0 59 8.5t37.5 16.5t30.5 24q57 39 90 43q25 0 37 -28q8 -20 8 -37q0 -8 -2 -15q0 -16 -6 -25q-46 -58 -124 -87q-58 -22 -123 -22q-23 0 -46 3q-117 14 -191 90q-71 72 -71 177v11z" />
<glyph unicode="d" horiz-adv-x="634" d="M52 426q0 88 16 192q22 127 92 209q139 154 313 197v580q0 21 17 33t40 12q54 0 54 -33v-1534q0 -88 -64 -88q-167 0 -237 12q-18 3 -38.5 10.5t-48.5 27.5t-52.5 48.5t-46.5 76.5q-22 49 -34 109q-12 58 -12 141q1 3 1 7zM160 457q2 -81 17 -145t37 -102t50.5 -63 t54 -34t50.5 -9q62 0 83 16t21 77v643q0 32 -9.5 41.5t-37.5 9.5q-15 0 -43 -12t-67.5 -44.5t-73.5 -79t-58 -125t-24 -173.5z" />
<glyph unicode="e" d="M51 281v471v17q-1 103 67 171q74 74 193 88q28 4 54 4q95 0 174 -51q49 -35 67 -84q9 -24 9 -55q0 -32 -10 -70q-19 -76 -83 -166q-158 -199 -352 -241v-89q4 -62 48 -109.5t130 -47.5q49 0 109 35q6 3 30 20.5t43 27t35 9.5q30 -1 43 -27q5 -10 5 -23q0 -22 -13 -52 q-46 -59 -124 -89q-55 -21 -116 -21q-24 0 -49 3q-119 14 -193 90q-68 70 -67 172v17zM172 575q0 -33 9.5 -44t37.5 -11q16 0 72.5 41t112.5 98q58 57 82 117q8 20 8 38q0 35 -33 60q-62 39 -113 39q-79 0 -122 -41.5t-54 -99.5v-197z" />
<glyph unicode="f" horiz-adv-x="421" d="M51 981v25.5t3 15.5t10 15t20 12h100v155v11q0 95 64 162q68 71 174 83q28 4 45 4q6 -26 6 -53t-6 -55h-6q-82 0 -123.5 -43.5t-46.5 -100.5v-163h69q76 0 76 -43q0 -64 -6 -70h-139v-901q0 -25 -13.5 -33t-39.5 -8q-22 0 -38 11.5t-16 29.5v901h-96q-37 0 -37 45z" />
<glyph unicode="g" horiz-adv-x="657" d="M51 264v477v17q0 100 67 170q74 76 191 90q24 3 47 3q70 0 131 -28q9 27 60 27q25 0 42 -12.5t17 -36.5v-1336v-11q0 -104 -69 -174q-73 -74 -191 -89q-17 -2 -36 -2q-52 0 -120 16q-32 19 -32 66q0 22 15 35t42 24q58 -20 100 -20q86 0 125.5 42.5t44.5 104.5v383 q-65 -23 -130 -23l-46 3q-117 14 -191 88q-67 69 -67 169v17zM170 264q5 -64 48.5 -111t129.5 -47q26 0 49.5 6t39 15t26.5 18t17 15l5 6v682q-19 19 -59 36t-78 17q-81 0 -124.5 -40t-53.5 -99v-498z" />
<glyph unicode="h" horiz-adv-x="634" d="M51 37v1440q0 23 15 31t45 8q24 0 39.5 -13t15.5 -37v-465q58 23 126 23q20 0 42 -2q116 -15 185 -90q65 -71 65 -177v-12v-708q0 -19 -10.5 -28t-43.5 -9q-63 0 -63 39v670v57q-9 59 -51 99t-121 40t-129 -41v-825q0 -39 -55 -39q-30 0 -45 8t-15 31z" />
<glyph unicode="i" horiz-adv-x="223" d="M51 72q0 -72 43 -72q29 0 52.5 9.5t23.5 29.5v940q0 45 -70 45q-49 0 -49 -63v-889zM53 1358q0 -30 9.5 -56t27.5 -26q31 0 56.5 9.5t25.5 29.5v86q0 21 -20.5 34t-49.5 13q-30 0 -39.5 -16t-9.5 -74z" />
<glyph unicode="j" horiz-adv-x="380" d="M51 -545q0 17 10 17q70 7 107.5 50t42.5 99v1362q0 43 25 43h59q16 0 24.5 -19.5t9.5 -38.5l1 -20v-1327q0 -100 -63.5 -170.5t-164.5 -87.5q-4 -4 -8 -4q-1 0 -3 1q-5 3 -5 9q-8 6 -21.5 39.5t-13.5 46.5zM205 1368v16q0 36 8 53t31 17q69 0 69 -49v-80q0 -17 -23 -28 t-46 -11q-39 0 -39 82z" />
<glyph unicode="k" horiz-adv-x="681" d="M51 39v1411q0 45 62 45q23 0 38 -15t15 -38v-824l375 400q12 13 27 13q22 0 48 -30q14 -20 14 -38.5t-14 -36.5l-329 -344l331 -545q8 -10 8 -18q0 -6 -4 -9q-6 -4 -12.5 -7t-17 -4t-15.5 -1h-12q-33 0 -52 4t-21 8l-3 4l-286 484l-37 -45v-414q0 -14 -3.5 -22.5t-12 -12 t-15.5 -4t-22 -0.5t-23 0.5t-19 4t-15.5 12t-4.5 22.5z" />
<glyph unicode="l" horiz-adv-x="286" d="M51 111v1345q0 24 15 32.5t43 8.5q27 0 43 -12.5t16 -34.5v-1303q0 -30 18 -30h15q35 0 35 -56q0 -61 -35 -61h-70q-26 0 -43.5 10t-24.5 28t-9.5 34t-2.5 39z" />
<glyph unicode="m" horiz-adv-x="1167" d="M51 39v962q0 37 62 37q29 0 45 -11.5t16 -45.5q82 49 172 49q73 0 136.5 -29.5t101.5 -72.5l2 2q12 13 25 24t43 31.5t72.5 32.5t90.5 12q131 0 218 -82q81 -77 81 -183v-15v-713q0 -22 -11.5 -29.5t-45.5 -7.5q-66 0 -66 37v733q-9 55 -52 98t-122 43q-69 0 -117 -45.5 t-55 -93.5v-735q0 -22 -15 -29.5t-50 -7.5q-34 0 -48 8.5t-14 28.5v739q-9 52 -51.5 93.5t-120.5 41.5t-121.5 -44t-52.5 -97v-735q0 -21 -13 -28t-52 -7q-33 0 -45.5 8.5t-12.5 30.5z" />
<glyph unicode="n" horiz-adv-x="694" d="M51 39v960q0 37 60 37q32 0 47.5 -11.5t15.5 -45.5q78 49 172 49q72 0 128 -21.5t86.5 -52t50.5 -68.5t26 -66t6 -50v-733q0 -22 -14.5 -29.5t-50.5 -7.5q-33 0 -45.5 8t-12.5 29v737q-11 52 -54 93.5t-118 41.5q-53 0 -93 -24.5t-58 -54t-25 -62.5v-729q0 -21 -13 -30 t-50 -9q-34 0 -46 8.5t-12 30.5z" />
<glyph unicode="o" horiz-adv-x="722" d="M51 244v538q0 80 46 138.5t115 84.5t149.5 26t149.5 -26.5t115 -85t46 -137.5v-538q0 -79 -46 -137.5t-115 -85t-149.5 -26.5t-149.5 26t-115 84.5t-46 138.5zM166 272q0 -7 1.5 -18t13 -39t30 -49.5t57.5 -39t92 -17.5q57 0 98 17t58.5 40.5t27 47.5t9.5 41v17v482v18 t-9 39t-27 50t-59 39.5t-98 17.5q-53 0 -92 -17t-57.5 -41t-30 -48t-12.5 -41l-2 -17v-482z" />
<glyph unicode="p" horiz-adv-x="696" d="M51 -600v1604q0 21 16 28.5t48 7.5q26 0 42.5 -12t16.5 -33v-10q88 47 176 48h5q86 0 149 -35q65 -37 104 -106q37 -65 37 -145v-12v-463v-10q0 -109 -85 -188q-88 -82 -214 -82q-86 0 -172 51v-635q0 -21 -16.5 -33t-42.5 -12q-64 0 -64 37zM174 252q0 -55 44.5 -94 t127.5 -39q79 0 126.5 41t47.5 92v522q0 52 -46 92.5t-124 40.5q-83 0 -129.5 -41t-46.5 -92v-256v-266z" />
<glyph unicode="q" horiz-adv-x="696" d="M51 270v-10q0 -109 85 -188q88 -82 216 -82q82 0 174 51v-639q0 -22 17 -33.5t43 -11.5q59 0 59 33v1618q0 21 -14 27.5t-45 6.5q-26 0 -43 -11.5t-17 -33.5v-10q-89 48 -178 49q-4 1 -7 1q-86 0 -149 -36q-65 -37 -104 -107q-37 -65 -37 -145v-12v-467zM176 250v528 q0 50 46 89.5t124 39.5q84 0 132 -40t48 -89v-262v-266q0 -54 -46.5 -94.5t-127.5 -40.5q-80 0 -128 41.5t-48 93.5z" />
<glyph unicode="r" horiz-adv-x="491" d="M51 31v960q0 35 62 35q26 0 42.5 -12t16.5 -33v-43q57 72 139 82q18 2 35.5 1.5t34.5 -1.5q27 -3 55 -12q3 -10 3 -26t-3 -40q-5 -24 -28 -55q-7 1 -20.5 4t-16.5 4q-12 1 -24 1q-20 0 -40 -3q-60 -10 -97.5 -61t-37.5 -101v-700q-9 -35 -59 -35q-62 0 -62 35z" />
<glyph unicode="s" horiz-adv-x="645" d="M51 68q25 90 43 90q1 0 34 -10.5t81 -20.5q40 -8 76 -8h14q78 8 111 24q46 28 51 86q2 15 2 29q0 21 -5 41q-9 33 -23 56.5t-48 53t-57.5 46.5t-72.5 49l-9 6q-185 118 -191 262q-1 12 -1 24q0 98 96 167q89 67 219 67q98 0 196 -39q14 -8 4 -43q-33 -65 -39 -69 q-9 -7 -22 -7q-62 29 -139 29q-88 0 -144 -37q-43 -37 -43 -82q8 -73 125 -161l17 -13q18 -13 56 -39q23 -17 35 -25.5t33.5 -24.5t33.5 -27t30 -28.5t27.5 -32.5t21.5 -34.5t17.5 -39t9.5 -43.5q4 -21 4 -44v-5q0 -26 -4 -54q-12 -120 -119 -182q-76 -37 -176 -37h-19 q-108 0 -215 47q-10 7 -10 29z" />
<glyph unicode="t" horiz-adv-x="557" d="M61 999q0 36 9.5 49t33.5 13h89v239q0 20 13 28.5t48 8.5q30 0 45.5 -11t15.5 -26v-239h113q23 0 30 -12.5t7 -49.5q0 -67 -37 -67h-113v-729q0 -53 11.5 -65t74.5 -21q13 0 13 -11v-94q0 -18 -13 -18h-6q-119 4 -163 56q-39 47 -40 147q0 12 1 24v711h-89 q-19 0 -31 17.5t-12 49.5z" />
<glyph unicode="u" horiz-adv-x="696" d="M51 262v735q0 22 14.5 28.5t51.5 6.5q34 0 45.5 -7.5t11.5 -27.5v-739q11 -52 54 -93.5t118 -41.5q79 0 123 44t53 97v731q0 21 13.5 29t50.5 8q35 0 47 -7.5t12 -29.5v-964q0 -37 -61 -37q-32 0 -48 11.5t-16 45.5q-78 -49 -172 -49q-72 0 -128 21.5t-86.5 52.5 t-50.5 69.5t-26 66.5t-6 50z" />
<glyph unicode="v" horiz-adv-x="759" d="M53 971q-2 7 -2 14q-1 11 5 17q8 12 38 22q24 9 40 9q25 0 34 -21l158 -852q12 -39 43 -39q35 0 45 39l178 852q7 22 31 22q16 0 41 -10q32 -10 40 -21q5 -7 5 -18q0 -6 -2 -14l-170 -832q-15 -72 -59 -110.5t-109 -38.5q-72 0 -110 37t-56 112z" />
<glyph unicode="w" horiz-adv-x="1142" d="M53 971q-1 6 -1 11q0 13 6 20q8 10 38 22q27 9 44 9q25 0 28 -19l158 -852q3 -15 14.5 -26t26.5 -11q17 0 30.5 11t16.5 26l90 444l-64 365q-5 21 3 31t38 22q23 8 40 8q25 0 34 -18l158 -852q3 -15 14.5 -26t26.5 -11q28 0 47 37l172 852q9 18 34 18q16 0 40 -8 q31 -12 39 -22q4 -6 4 -14q0 -7 -3 -17l-165 -830q-35 -145 -168 -145q-71 0 -108.5 36t-53.5 109l-27 142l-30 -142q-31 -145 -168 -145q-71 0 -108.5 36t-53.5 109z" />
<glyph unicode="x" horiz-adv-x="681" d="M53 57l86 404q15 51 47 92q-31 40 -47 86l-67 334q-5 23 3.5 33.5t41.5 17.5q28 10 46 10q25 0 30 -20l79 -352q16 -39 64 -39q18 0 35.5 11t21.5 28l92 339q11 21 25 27q5 2 14 2q14 0 37 -6q37 -7 46.5 -17.5t4.5 -33.5l-86 -334q-24 -71 -41 -86q22 -29 41 -92 l103 -404q2 -5 1 -10q0 -11 -6 -21q-10 -16 -46 -26q-24 -6 -38 -6q-7 0 -12 1q-16 4 -24 21l-117 426q-8 35 -51 35q-47 0 -64 -35l-92 -426q-9 -18 -25 -20.5t-55 10.5q-34 8 -43 18q-6 7 -6 18q0 7 2 15z" />
<glyph unicode="y" horiz-adv-x="638" d="M51 274v732v3.5t3 9t8.5 11t18 8.5t30.5 4q63 0 63 -36v-754q0 -47 28 -77t68 -39q39 -8 79 -8h5q42 1 74 8.5t41 15.5v843q0 28 15 36.5t46 8.5q25 0 41.5 -12t16.5 -35v-1360v-17q0 -101 -68 -169q-73 -74 -190 -90q-18 -2 -37 -2q-54 0 -117 18q-35 21 -35 64 q0 26 19 46t41 13q55 -20 96 -20q88 0 128.5 42t43.5 105v391q-58 -17 -111 -17q-24 0 -47 3q-118 14 -192 88q-68 68 -68 169v17z" />
<glyph unicode="z" horiz-adv-x="702" d="M59 43q-8 16 -8 34q0 25 15 54l426 762v2q1 2 -2 4t-9 2h-387q-24 0 -24 23v71q0 29 18 29h475q56 0 78 -43q9 -17 9 -36q0 -25 -15 -52l-424 -760q-6 -10 8 -10l402 4q7 0 10.5 -5.5t3.5 -10.5v-5v-94q0 -12 -14 -12h-482q-55 0 -80 43z" />
<glyph unicode="{" horiz-adv-x="456" d="M51 731q0 14 1.5 22.5t5 19t5.5 18.5q55 14 83 52.5t28 82.5v434q-4 96 59 161t166 83q14 -36 -6 -111q-54 -13 -82 -51.5t-28 -81.5v-434q3 -60 -22.5 -110.5t-72.5 -80.5q101 -74 95 -196v-424q0 -45 29 -84.5t85 -50.5q9 -57 -14 -107q-95 19 -152 85t-53 159v422 q-3 47 -33.5 87t-87.5 54q-6 9 -6 51z" />
<glyph unicode="|" horiz-adv-x="331" d="M102 -100q0 -45 70 -45q49 0 49 63l8 1595q3 72 -41 72q-29 0 -52 -9.5t-23 -29.5q-1 -13 -5.5 -821t-5.5 -825z" />
<glyph unicode="}" horiz-adv-x="456" d="M57 1606q103 -18 166 -83.5t56 -160.5v-434q3 -45 31.5 -83t82.5 -52q2 -8 5.5 -18.5t5.5 -19t2 -22.5q0 -41 -7 -51q-57 -14 -86.5 -54.5t-29.5 -86.5v-422q1 -93 -57 -159t-152 -85q-24 51 -15 107q56 11 85.5 50.5t29.5 84.5v424q-6 122 94 196q-46 30 -71.5 80 t-22.5 111v434q0 43 -28.5 81.5t-82.5 51.5q-20 75 -6 111z" />
<glyph unicode="~" horiz-adv-x="2109" />
<glyph unicode="&#xa1;" horiz-adv-x="231" d="M51 -354q0 -23 19 -34t45 -11q65 0 65 63l-18 1051q0 71 -49 71q-17 0 -34.5 -9.5t-17.5 -28.5zM55 944q0 -21 20.5 -34t49.5 -13q30 0 39.5 16t9.5 74q0 30 -9.5 56t-27.5 26q-31 0 -56.5 -9.5t-25.5 -29.5v-86z" />
<glyph unicode="&#xa2;" d="M51 412v479q-4 103 58.5 175.5t164.5 96.5v78q0 64 50 64q69 0 69 -45v-89q124 -9 201 -92q17 -17 19 -33t-8.5 -28.5t-23 -21t-26.5 -13.5q-14 -8 -29.5 -4t-23.5 9t-21 15.5t-22 14.5q-29 20 -66 29v-791q39 7 86 45q57 39 90 43q25 0 36.5 -28t6.5 -52q0 -15 -6 -24 q-78 -95 -213 -107v-94q0 -20 -23.5 -29.5t-52.5 -9.5q-43 0 -43 72v69q-102 24 -164.5 97t-58.5 174zM174 410q2 -45 26 -85t74 -59v772q-50 -19 -74 -59t-26 -86v-483z" />
<glyph unicode="&#xa3;" horiz-adv-x="854" d="M51 72q0 28 23 37q16 4 22 8q64 21 98 68t37 102v362h-116q-26 0 -39 19t-13 49q0 51 95 51h73v358q-6 130 79 225t210 95h193q5 -76 -6 -125h-195q-71 0 -117.5 -67t-46.5 -128v-358h125q39 0 60.5 -12t21.5 -43q0 -24 -15 -44t-44 -20h-148v-362q3 -101 -41 -168h434 q37 0 49.5 -11t12.5 -45v-10v-12.5t-1 -11.5t-3.5 -11.5t-6.5 -8.5t-10.5 -7t-15.5 -2h-666q-24 0 -36.5 25t-12.5 47z" />
<glyph unicode="&#xa4;" horiz-adv-x="942" d="M61 412q-28 31 21 82l106 104q-28 51 -28 113v178q0 58 26 108l-123 123q-33 32 17 82q35 35 80 -10l108 -109q85 55 202 55t202 -55l110 109q42 46 78 10q49 -49 19 -82q-1 -1 -18 -17.5t-46.5 -45.5t-60.5 -60q26 -45 26 -108v-178q0 -62 -28 -113l106 -104 q50 -50 21 -82q-20 -20 -42 -28.5t-40 3.5l-127 127q-85 -53 -200 -53.5t-200 53.5l-127 -127q-26 -26 -82 25zM283 739q0 -7 1 -17.5t11 -38.5t27 -49t55.5 -38.5t91.5 -17.5q42 0 75 9t52 23t32 31t18 34.5t7.5 31.5t2.5 23l-1 9v121q0 3 0.5 9t-1.5 23t-7.5 32t-18.5 34 t-32 32.5t-52 22.5t-75 9q-53 0 -91.5 -16.5t-55.5 -40.5t-27 -48t-11 -41l-1 -16v-121z" />
<glyph unicode="&#xa5;" horiz-adv-x="634" d="M57 1395q-17 53 25 67q61 22 72 -16l163 -498l164 498q11 38 72 16q42 -14 25 -67l-205 -617v-106h69q64 0 64 -43q0 -64 -45 -64h-88v-51h69q64 0 64 -43q0 -63 -45 -63h-88v-375q0 -9 -25.5 -21t-46.5 -12q-32 0 -37 39v369h-98q-20 0 -29.5 20.5t-9.5 46.5q0 39 72 39 h65v51h-98q-20 0 -29.5 21t-9.5 47q0 39 72 39h65v104z" />
<glyph unicode="&#xa6;" horiz-adv-x="2109" />
<glyph unicode="&#xa7;" horiz-adv-x="897" d="M51 10q25 90 43 90q1 0 34 -10.5t81 -20.5t90 -8q76 8 111 25q46 28 51 86q6 37 -3 70t-23 56.5t-48 53t-57.5 46.5t-72.5 49l-9 6q-185 118 -191 262q-13 114 95 190q77 59 190 68q-30 53 -33 110q-13 115 94 191q89 67 220 67q100 0 196 -38q14 -8 4 -43 q-33 -66 -39 -70q-8 -6 -22 -6q-60 28 -139 28q-89 0 -144 -36q-43 -37 -43 -82q8 -74 125 -162l17 -12q18 -13 55 -39q23 -16 35 -24.5t34 -25t33.5 -27.5t29.5 -28.5t27.5 -32.5t22 -34.5t18 -39.5t10 -43.5t4 -49.5t-4.5 -54q-12 -120 -119 -182q-70 -32 -143 -35 q23 -72 10 -151q-12 -122 -119 -183q-76 -37 -176 -37h-19q-106 0 -215 48q-10 7 -10 28zM184 725q8 -74 125 -162l17 -12q13 -10 70.5 -51t86.5 -66q46 -4 68 -4q76 8 111 25q46 28 51 86q6 37 -2.5 70t-23 56.5t-48 53t-57.5 46t-72 48.5q-62 29 -139 29q-88 0 -144 -37 q-43 -37 -43 -82z" />
<glyph unicode="&#xa8;" horiz-adv-x="466" d="M51 1333q0 -30 9.5 -56t27.5 -26q31 0 56.5 9.5t25.5 29.5v86q0 21 -20.5 34t-49.5 13q-30 0 -39.5 -16t-9.5 -74zM297 1333q0 -30 9.5 -56t27.5 -26q31 0 56.5 9.5t25.5 29.5v86q0 21 -20.5 34t-49.5 13q-30 0 -39.5 -16t-9.5 -74z" />
<glyph unicode="&#xa9;" horiz-adv-x="1470" d="M51 723q0 134 51.5 259.5t147.5 221.5q100 97 225 149t260 52t261 -52t223 -149q96 -96 148 -221.5t52 -259.5q0 -281 -200 -487q-97 -97 -223 -149t-261 -52t-260 52t-225 149q-199 205 -199 487zM158 723q0 -158 77 -292t210 -212t290 -78t290 78t210.5 212t77.5 292 q0 156 -77.5 289t-210.5 210.5t-290 77.5q-117 0 -224 -46t-184.5 -123.5t-123 -184t-45.5 -223.5zM479 586v272q-4 97 60.5 163t165.5 77q73 9 136.5 -12.5t104.5 -65.5q15 -14 17 -28t-7.5 -25t-20 -18t-22.5 -13q-12 -7 -26 -3t-20.5 8t-18.5 14t-19 14q-44 26 -92 26 q-75 0 -112 -41t-39 -94v-276q2 -53 39 -94t112 -41q62 0 111 43q51 33 76 36q24 0 33.5 -23t5.5 -46q0 -11 -5 -21q-39 -50 -107.5 -75.5t-145.5 -16.5q-101 12 -165.5 78t-60.5 162z" />
<glyph unicode="&#xab;" horiz-adv-x="792" d="M57 573q-24 27 25 80l293 293q31 31 80 -18q36 -33 -11 -80l-110 -111q6 -5 17 -16t22 -22.5t12 -12.5q37 37 106.5 106t108.5 108t45 46q32 32 82 -18q34 -34 -10 -78l-248 -248l248 -248q44 -44 10 -78q-50 -50 -82 -18q-6 7 -45 46t-108.5 108t-106.5 106 q-14 -14 -26 -25.5t-18.5 -17.5t-8.5 -8l112 -113q46 -46 11 -80q-50 -46 -80 -16q-291 291 -318 315zM199 602l51 -51l51 51l-51 51q-8 -7 -16.5 -16t-19 -19.5z" />
<glyph unicode="&#xac;" horiz-adv-x="2109" />
<glyph unicode="&#xad;" horiz-adv-x="970" d="M51 604q0 -29 9.5 -52.5t29.5 -23.5h784q23 0 34.5 20t11.5 50q0 49 -64 49h-733q-72 0 -72 -43z" />
<glyph unicode="&#xae;" horiz-adv-x="1470" d="M51 723q0 134 51.5 259.5t147.5 221.5q100 97 225 149t260 52t261 -52t223 -149q96 -96 148 -221.5t52 -259.5q0 -281 -200 -487q-97 -97 -223 -149t-261 -52t-260 52t-225 149q-199 205 -199 487zM158 723q0 -158 77 -292t210 -212t290 -78t290 78t210.5 212t77.5 292 q0 156 -77.5 289t-210.5 210.5t-290 77.5q-117 0 -224 -46t-184.5 -123.5t-123 -184t-45.5 -223.5zM573 330v774q0 15 2 24.5t15.5 20t38.5 10.5q106 0 139 -6q48 -5 82 -24t50 -40.5t25 -54.5t10 -50.5t1 -43.5v-10q0 -45 -16 -86q-30 -88 -111 -117l129 -397 q-1 -5 -4 -12.5t-16 -20t-29 -12.5q-20 0 -36 6t-22 12l-6 6q-117 357 -133 404h-8v-387q0 -3 -1 -7t-5 -11t-10.5 -13t-19.5 -10t-30 -4q-14 0 -29.5 11.5t-15.5 37.5zM684 829h57q50 3 67 31t17 74q0 25 -2 40.5t-9.5 31.5t-23.5 24.5t-42 11.5l-64 5v-218z" />
<glyph unicode="&#xaf;" horiz-adv-x="536" d="M51 1556q0 -29 9.5 -52t29.5 -23h350q45 0 45 69q0 49 -63 49h-299q-72 0 -72 -43z" />
<glyph unicode="&#xb0;" horiz-adv-x="518" d="M51 1196l416 176v-176q0 -55 -31 -96t-77 -59t-100 -18.5t-100 18t-77 59t-31 96.5zM138 1365l1 -11v-137q2 -1 0 -12t4.5 -28t16.5 -33t36.5 -28t63.5 -12q40 0 67 11.5t37 28t14 33.5t2 29l-1 11v137q1 4 2 11.5t-3 25.5t-14 32t-37 25.5t-67 11.5q-37 0 -63.5 -11 t-37 -26.5t-16 -31t-5.5 -26.5z" />
<glyph unicode="&#xb1;" horiz-adv-x="1048" d="M51 317q0 43 72 43h811q63 0 63 -49q0 -69 -45 -69h-862q-20 0 -29.5 23t-9.5 52zM51 930q0 43 72 43h342v375q0 20 23 29t53 9q43 0 43 -71v-342h350q63 0 63 -49q0 -70 -45 -70h-368v-350q0 -64 -49 -64q-70 0 -70 45v369h-375q-20 0 -29.5 23.5t-9.5 52.5z" />
<glyph unicode="&#xb4;" horiz-adv-x="409" d="M53.5 1399q-6.5 -18 5.5 -39q7 -13 27.5 -22t38.5 -1q121 54 215 119q21 14 19.5 37t-19.5 49q-11 17 -25.5 20.5t-27.5 -2t-33 -18.5l-164 -102q-30 -23 -36.5 -41z" />
<glyph unicode="&#xb6;" horiz-adv-x="827" d="M52 1142l1 19q0 92 5 125q31 200 251 223q60 7 412 7q36 0 45.5 -11.5t9.5 -42.5v-1519q0 -64 -45 -64q-74 0 -74 19v1419q0 26 -26 26h-31v-1400q0 -33 -12 -43.5t-33 -10.5t-47.5 9.5t-26.5 23.5v871q0 26 -26 26q-39 0 -96 3t-74 3q-53 0 -95 18.5t-66 48t-40.5 65.5 t-22 72t-8 65.5t-1.5 47.5z" />
<glyph unicode="&#xb7;" horiz-adv-x="301" d="M51 586q0 -39 12.5 -74t36.5 -35q150 0 150 51v115q0 29 -33.5 45.5t-99.5 16.5q-40 0 -53 -21t-13 -98z" />
<glyph unicode="&#xb8;" horiz-adv-x="385" d="M52 -285q1 7 5 13.5t11 9.5q42 -14 73 -14q115 0 90 102q-1 2 -2 9.5t-2.5 8.5t-5.5 5t-11.5 4t-20.5 1t-33 1h-54q-6 0 -10 3t-5 6l-1 3v156h102v-89q54 0 84 -13t41 -54l15 -57q11 -42 0 -77.5t-39.5 -57.5t-65.5 -33.5t-80 -8t-82 20.5q0 1 -2.5 11.5t-4 16t-2.5 16 t0 17.5z" />
<glyph unicode="&#xbb;" horiz-adv-x="792" d="M66 268q-34 34 10 78l248 248l-248 248q-44 44 -10 78q50 50 81 18q6 -7 46.5 -47t107 -106t107.5 -107l51 51l-111 111q-46 46 -10 80q49 49 80 18l293 -293q20 -21 27.5 -41.5t-3.5 -38.5q-18 -16 -317 -315q-30 -30 -80 16q-20 24 -16 41t26 39q52 54 113 113 q-2 2 -8.5 8t-18.5 17.5t-26 25.5q-41 -41 -107.5 -107t-107 -106t-46.5 -47q-31 -32 -81 18zM492 594q8 -8 20 -19.5t19.5 -19t11.5 -12.5q9 8 18 17t19 19.5t14 14.5l-51 51q-8 -7 -17.5 -16.5t-20 -20.5t-13.5 -14z" />
<glyph unicode="&#xbf;" horiz-adv-x="696" d="M51.5 -90.5q-2.5 72.5 20.5 137.5q7 23 19 51t18.5 41t26.5 50.5t22 41.5q9 18 28 53.5t30 57t22.5 52t15.5 57.5q19 101 22 183.5t-2 178.5q54 36 115 2q3 -125 -3 -202t-36 -185q-35 -122 -92 -238q-52 -96 -78 -172q-17 -50 -14.5 -102t22.5 -92q28 -54 82 -72 q25 -8 49 -8.5t45.5 6.5t40.5 17t39 25t36.5 29t36.5 30.5t36 27.5q23 18 70 -29q11 -11 18 -27.5t0 -23.5q-31 -27 -54.5 -45t-59.5 -43.5t-68.5 -39.5t-70.5 -25.5t-78.5 -10t-80.5 14.5q-42 15 -83.5 52t-63.5 79q-28 56 -30.5 128.5zM268 987q0 -21 20.5 -34t49.5 -13 q30 0 39.5 16t9.5 74q0 30 -9.5 56t-27.5 26q-31 0 -56.5 -9.5t-25.5 -29.5v-86z" />
<glyph unicode="&#xc0;" horiz-adv-x="675" d="M51 33q0 20 88.5 692.5t93.5 699.5q10 37 41 37h127q16 0 27.5 -10t11.5 -27q5 -18 95 -694t90 -698q0 -37 -43 -37q-58 0 -64 31q0 5 -6.5 55t-20.5 155t-26 201q-6 23 -21 23h-213q-14 0 -20 -23q-12 -96 -26 -201t-20.5 -155t-6.5 -55q-4 -31 -64 -31q-43 0 -43 37z M158.5 1780q-1.5 -23 19.5 -37q94 -65 215 -119q18 -8 38.5 1t27.5 22q12 21 5.5 38.5t-36.5 40.5l-164 103q-20 13 -33 18.5t-27.5 2t-25.5 -20.5q-18 -26 -19.5 -49zM243 593.5q5 -5.5 29 -5.5h131q24 0 29.5 5.5t-0.5 31.5q-19 144 -41.5 331t-34 286t-14.5 99h-8 q-3 0 -14.5 -99t-34 -286t-41.5 -331q-6 -26 -1 -31.5z" />
<glyph unicode="&#xc1;" horiz-adv-x="675" d="M51 33q0 20 88.5 692.5t93.5 699.5q10 37 41 37h127q16 0 27.5 -10t11.5 -27q5 -18 95 -694t90 -698q0 -37 -43 -37q-58 0 -64 31q0 5 -6.5 55t-20.5 155t-26 201q-6 23 -21 23h-213q-14 0 -20 -23q-12 -96 -26 -201t-20.5 -155t-6.5 -55q-4 -31 -64 -31q-43 0 -43 37z M215.5 1685.5q-6.5 -17.5 5.5 -38.5q7 -13 27.5 -22t38.5 -1q121 54 215 119q21 14 19.5 37t-19.5 49q-11 17 -25.5 20.5t-27.5 -2t-33 -18.5l-164 -103q-30 -23 -36.5 -40.5zM243 593.5q5 -5.5 29 -5.5h131q24 0 29.5 5.5t-0.5 31.5q-19 144 -41.5 331t-34 286t-14.5 99h-8 q-3 0 -14.5 -99t-34 -286t-41.5 -331q-6 -26 -1 -31.5z" />
<glyph unicode="&#xc2;" horiz-adv-x="675" d="M51 33q0 20 88.5 692.5t93.5 699.5q10 37 41 37h127q16 0 27.5 -10t11.5 -27q5 -18 95 -694t90 -698q0 -37 -43 -37q-58 0 -64 31q0 5 -6.5 55t-20.5 155t-26 201q-6 23 -21 23h-213q-14 0 -20 -23q-12 -96 -26 -201t-20.5 -155t-6.5 -55q-4 -31 -64 -31q-43 0 -43 37z M182 1691.5q0 18.5 15 28.5q1 1 35.5 28t58.5 43t37 19h34q12 -3 36 -19t58.5 -43t35.5 -28q25 -18 0 -67q-28 -49 -74 0q-41 41 -76 61q-13 -9 -30.5 -24t-28.5 -26l-11 -11q-48 -48 -75 0q-15 20 -15 38.5zM243 593.5q5 -5.5 29 -5.5h131q24 0 29.5 5.5t-0.5 31.5 q-19 144 -41.5 331t-34 286t-14.5 99h-8q-3 0 -14.5 -99t-34 -286t-41.5 -331q-6 -26 -1 -31.5z" />
<glyph unicode="&#xc3;" horiz-adv-x="675" d="M51 33q0 20 88.5 692.5t93.5 699.5q10 37 41 37h127q16 0 27.5 -10t11.5 -27q5 -18 95 -694t90 -698q0 -37 -43 -37q-58 0 -64 31q0 5 -6.5 55t-20.5 155t-26 201q-6 23 -21 23h-213q-14 0 -20 -23q-12 -96 -26 -201t-20.5 -155t-6.5 -55q-4 -31 -64 -31q-43 0 -43 37z M117 1690q63 90 159 90q25 0 47 -10.5t33.5 -21t28.5 -28.5q29 -33 49 -37q34 -9 98 25q17 -17 23 -25q14 -20 6 -55q-64 -31 -112 -31q-10 0 -35 5q-9 2 -17.5 5.5t-17 8.5t-13 8t-13 10.5t-10.5 9.5t-11 12l-10 9q-27 31 -46 31q-25 0 -47 -13t-31.5 -24.5t-15.5 -22.5 q-18 3 -32 17q-24 16 -33 37zM243 593.5q5 -5.5 29 -5.5h131q24 0 29.5 5.5t-0.5 31.5q-19 144 -41.5 331t-34 286t-14.5 99h-8q-3 0 -14.5 -99t-34 -286t-41.5 -331q-6 -26 -1 -31.5z" />
<glyph unicode="&#xc4;" horiz-adv-x="675" d="M51 33q0 20 88.5 692.5t93.5 699.5q10 37 41 37h127q16 0 27.5 -10t11.5 -27q5 -18 95 -694t90 -698q0 -37 -43 -37q-58 0 -64 31q0 5 -6.5 55t-20.5 155t-26 201q-6 23 -21 23h-213q-14 0 -20 -23q-12 -96 -26 -201t-20.5 -155t-6.5 -55q-4 -31 -64 -31q-43 0 -43 37z M154 1702q0 -30 9 -56t27 -26q31 0 56.5 9.5t25.5 29.5v86q0 21 -20 34t-49 13q-30 0 -39.5 -16t-9.5 -74zM243 593.5q5 -5.5 29 -5.5h131q24 0 29.5 5.5t-0.5 31.5q-19 144 -41.5 331t-34 286t-14.5 99h-8q-3 0 -14.5 -99t-34 -286t-41.5 -331q-6 -26 -1 -31.5zM399 1702 q0 -30 9.5 -56t27.5 -26q31 0 56.5 9.5t25.5 29.5v86q0 21 -20 34t-49 13q-30 0 -40 -16t-10 -74z" />
<glyph unicode="&#xc5;" horiz-adv-x="675" d="M51 33q0 20 88.5 692.5t93.5 699.5q10 37 41 37h127q16 0 27.5 -10t11.5 -27q5 -18 95 -694t90 -698q0 -37 -43 -37q-58 0 -64 31q0 5 -6.5 55t-20.5 155t-26 201q-6 23 -21 23h-213q-14 0 -20 -23q-12 -96 -26 -201t-20.5 -155t-6.5 -55q-4 -31 -64 -31q-43 0 -43 37z M182 1817q0 72 43.5 121t112.5 49q68 0 107.5 -48.5t39.5 -121.5t-39.5 -121.5t-107.5 -48.5q-69 0 -112.5 49t-43.5 121zM243 593.5q5 -5.5 29 -5.5h131q24 0 29.5 5.5t-0.5 31.5q-19 144 -41.5 331t-34 286t-14.5 99h-8q-3 0 -14.5 -99t-34 -286t-41.5 -331 q-6 -26 -1 -31.5zM260 1817q0 -39 21 -65t57 -26q70 0 70 91q0 40 -17 65t-53 25t-57 -26t-21 -64z" />
<glyph unicode="&#xc7;" horiz-adv-x="630" d="M51 231v996q-4 97 61 163t167 78q121 15 211 -52t90 -163q0 -27 -29 -36.5t-57.5 -1t-28.5 23.5q0 41 -47 84t-109 43q-72 0 -110.5 -42t-40.5 -93v-1000q2 -52 40 -93.5t111 -41.5q62 0 109 42.5t47 82.5q0 15 28.5 24t57.5 -0.5t29 -37.5q0 -87 -75.5 -151.5 t-182.5 -65.5v-51q54 0 83.5 -13.5t40.5 -54.5l15 -57q11 -42 0 -77.5t-39 -57.5t-65 -33.5t-80 -8t-82 20.5l-3 14q-4 13 -5 20.5t-1.5 19.5t3.5 19.5t12 10.5q42 -14 73 -14q33 0 54.5 9.5t29.5 21t10 29t0.5 25.5t-3.5 17q-1 3 -2 8t-1.5 6.5t-2 4.5t-4.5 4t-8 2.5t-13 2 t-19 1t-26 0.5h-53q-6 0 -10.5 3t-5.5 6l-1 3v135q-78 26 -125 86t-43 139z" />
<glyph unicode="&#xc8;" horiz-adv-x="616" d="M51 55v1352q0 26 7 38.5t28 18.5h10h461q11 -4 7.5 -30.5t-18.5 -57t-28 -30.5h-315q-35 0 -35 -43v-357q0 -12 1.5 -19t9 -12.5t22.5 -5.5h196q27 0 29.5 -30.5t-13.5 -61.5t-32 -31h-178q-35 0 -35 -28v-598q0 -43 35 -43h313q13 0 27.5 -30.5t17 -56.5t-9.5 -30h-447 h-4h-4h-10q-21 4 -28 16.5t-7 38.5zM125.5 1790q-1.5 -23 19.5 -37q94 -65 215 -119q18 -8 38.5 1t27.5 22q12 21 5.5 39t-36.5 41l-164 102q-20 13 -33 18.5t-27.5 2t-25.5 -20.5q-18 -26 -19.5 -49z" />
<glyph unicode="&#xc9;" horiz-adv-x="616" d="M51 55v1352q0 26 7 38.5t28 18.5h10h461q11 -4 7.5 -30.5t-18.5 -57t-28 -30.5h-315q-35 0 -35 -43v-357q0 -12 1.5 -19t9 -12.5t22.5 -5.5h196q27 0 29.5 -30.5t-13.5 -61.5t-32 -31h-178q-35 0 -35 -28v-598q0 -43 35 -43h313q13 0 27.5 -30.5t17 -56.5t-9.5 -30h-447 h-4h-4h-10q-21 4 -28 16.5t-7 38.5zM182.5 1696q-6.5 -18 5.5 -39q7 -13 27.5 -22t38.5 -1q121 54 215 119q21 14 19.5 37t-19.5 49q-11 17 -25.5 20.5t-27.5 -2t-33 -18.5l-164 -102q-30 -23 -36.5 -41z" />
<glyph unicode="&#xcb;" horiz-adv-x="616" d="M51 55v1352q0 26 7 38.5t28 18.5h10h461q11 -4 7.5 -30.5t-18.5 -57t-28 -30.5h-315q-35 0 -35 -43v-357q0 -12 1.5 -19t9 -12.5t22.5 -5.5h196q27 0 29.5 -30.5t-13.5 -61.5t-32 -31h-178q-35 0 -35 -28v-598q0 -43 35 -43h313q13 0 27.5 -30.5t17 -56.5t-9.5 -30h-447 h-4h-4h-10q-21 4 -28 16.5t-7 38.5zM121 1712q0 -30 9.5 -56t27.5 -26q31 0 56.5 9.5t25.5 29.5v86q0 21 -20.5 34t-49.5 13q-30 0 -39.5 -16t-9.5 -74zM367 1712q0 -30 9 -56t27 -26q31 0 56.5 9.5t25.5 29.5v86q0 21 -20 34t-49 13q-30 0 -39.5 -16t-9.5 -74z" />
<glyph unicode="&#xcc;" horiz-adv-x="215" d="M-68.5 1774q-1.5 -23 19.5 -37q94 -65 215 -119q18 -8 38 0.5t27 21.5q13 21 6.5 39t-36.5 41l-164 103q-20 13 -33 18.5t-27.5 2t-25.5 -20.5q-18 -26 -19.5 -49zM51 43q0 -22 8 -30.5t31 -8.5q74 0 74 29v1405q0 20 -19 30.5t-49 10.5q-27 0 -36 -15t-9 -45v-1376z" />
<glyph unicode="&#xcf;" horiz-adv-x="215" d="M-74 1696q0 -30 9.5 -56t27.5 -26q31 0 56.5 9.5t25.5 29.5v86q0 21 -20.5 34t-49.5 13q-30 0 -39.5 -16t-9.5 -74zM51 43q0 -22 8 -30.5t31 -8.5q74 0 74 29v1405q0 20 -19 30.5t-49 10.5q-27 0 -36 -15t-9 -45v-1376zM172 1696q0 -30 9.5 -56t27.5 -26q31 0 56.5 9.5 t25.5 29.5v86q0 21 -20.5 34t-49.5 13q-30 0 -39.5 -16t-9.5 -74z" />
<glyph unicode="&#xd1;" horiz-adv-x="643" d="M51 49v1358v4q0 17 4 25q10 26 41 26h10q38 3 50 -20q6 -6 6 -21q12 -37 134 -452.5t187 -620.5l-2 1059q0 55 47 55q64 0 64 -41v-1382q0 -17 -25 -36t-47 -19q-10 0 -20 10q-16 13 -27 43q-3 8 -52.5 168t-129 417.5t-129.5 417.5v-1001q0 -17 -25 -36t-47 -19 q-35 0 -39 65zM92 1651q63 90 160 90q25 0 47 -10.5t32.5 -20.5t28.5 -29q28 -32 50 -36q36 -9 98 24q16 -16 22 -24q15 -22 7 -56q-61 -30 -113 -30q-15 0 -35 4q-9 2 -17.5 5.5t-17 8.5t-13 8t-13 10.5t-10.5 9.5t-12 11l-9 10q-27 31 -45 31q-25 0 -47 -13t-31.5 -24.5 t-15.5 -22.5q-19 3 -33 17q-24 16 -33 37z" />
<glyph unicode="&#xd2;" horiz-adv-x="651" d="M51 199v1063q0 61 30.5 109t78.5 72.5t106.5 36t117.5 0t107 -36.5t78.5 -72.5t30.5 -108.5q-4 -23 0 -1063q0 -61 -30.5 -108.5t-78.5 -72.5t-106.5 -36.5t-117.5 0t-107 36t-78.5 72.5t-30.5 109zM148.5 1780q-1.5 -23 19.5 -37q94 -65 215 -119q18 -8 38.5 1t27.5 22 q12 21 5.5 38.5t-36.5 40.5l-164 103q-20 13 -33 18.5t-27.5 2t-25.5 -20.5q-18 -26 -19.5 -49zM160 223q0 -6 1 -15.5t9.5 -34t24 -43.5t50 -34.5t81.5 -15.5q50 0 85 14.5t49 36t21 42.5t7 35l-1 15v1014q0 3 0.5 8t-1.5 19.5t-6.5 28t-15.5 30t-28 28t-45.5 19.5t-64.5 8 q-47 0 -81.5 -14.5t-50 -35t-24 -41.5t-9.5 -35l-1 -15v-1014z" />
<glyph unicode="&#xd3;" horiz-adv-x="651" d="M51 199v1063q0 61 30.5 109t78.5 72.5t106.5 36t117.5 0t107 -36.5t78.5 -72.5t30.5 -108.5q-4 -23 0 -1063q0 -61 -30.5 -108.5t-78.5 -72.5t-106.5 -36.5t-117.5 0t-107 36t-78.5 72.5t-30.5 109zM160 223q0 -6 1 -15.5t9.5 -34t24 -43.5t50 -34.5t81.5 -15.5 q50 0 85 14.5t49 36t21 42.5t7 35l-1 15v1014q0 3 0.5 8t-1.5 19.5t-6.5 28t-15.5 30t-28 28t-45.5 19.5t-64.5 8q-47 0 -81.5 -14.5t-50 -35t-24 -41.5t-9.5 -35l-1 -15v-1014zM205.5 1685.5q-6.5 -17.5 5.5 -38.5q7 -13 27 -22t38 -1q124 56 216 119q21 14 19.5 37 t-19.5 49q-11 17 -25.5 20.5t-27.5 -2t-33 -18.5l-164 -103q-30 -23 -36.5 -40.5z" />
<glyph unicode="&#xd4;" horiz-adv-x="651" d="M51 199v1063q0 61 30.5 109t78.5 72.5t106.5 36t117.5 0t107 -36.5t78.5 -72.5t30.5 -108.5q-4 -23 0 -1063q0 -61 -30.5 -108.5t-78.5 -72.5t-106.5 -36.5t-117.5 0t-107 36t-78.5 72.5t-30.5 109zM160 223q0 -6 1 -15.5t9.5 -34t24 -43.5t50 -34.5t81.5 -15.5 q50 0 85 14.5t49 36t21 42.5t7 35l-1 15v1014q0 3 0.5 8t-1.5 19.5t-6.5 28t-15.5 30t-28 28t-45.5 19.5t-64.5 8q-47 0 -81.5 -14.5t-50 -35t-24 -41.5t-9.5 -35l-1 -15v-1014zM171 1691.5q0 18.5 15 28.5q1 1 35.5 28t58.5 43t37 19h35q12 -3 36 -19t57 -42.5t36 -28.5 q25 -18 0 -67q-28 -49 -73 0q-41 41 -76 61q-13 -9 -30.5 -24t-28.5 -26l-11 -11q-48 -48 -76 0q-15 20 -15 38.5z" />
<glyph unicode="&#xd5;" horiz-adv-x="651" d="M51 199v1063q0 61 30.5 109t78.5 72.5t106.5 36t117.5 0t107 -36.5t78.5 -72.5t30.5 -108.5q-4 -23 0 -1063q0 -61 -30.5 -108.5t-78.5 -72.5t-106.5 -36.5t-117.5 0t-107 36t-78.5 72.5t-30.5 109zM106 1690q63 90 160 90q25 0 47 -10.5t33.5 -21t28.5 -28.5 q29 -33 49 -37q34 -9 98 25q17 -17 23 -25q14 -20 6 -55q-64 -31 -113 -31q-10 0 -35 5q-9 2 -17.5 5.5t-17 8.5t-13 8t-13 10.5t-10.5 9.5l-12 12l-9 9q-27 31 -45 31q-25 0 -47 -13t-31.5 -24.5t-15.5 -22.5q-19 3 -33 17q-24 16 -33 37zM160 223q0 -6 1 -15.5t9.5 -34 t24 -43.5t50 -34.5t81.5 -15.5q50 0 85 14.5t49 36t21 42.5t7 35l-1 15v1014q0 3 0.5 8t-1.5 19.5t-6.5 28t-15.5 30t-28 28t-45.5 19.5t-64.5 8q-47 0 -81.5 -14.5t-50 -35t-24 -41.5t-9.5 -35l-1 -15v-1014z" />
<glyph unicode="&#xd7;" horiz-adv-x="817" d="M56 946.5q9 21.5 30 42.5q31 31 82 -20q15 -18 242 -242q249 253 264 264q18 12 39 4t43 -28q28 -31 -21 -82l-241 -242l247 -248q14 -15 20.5 -26.5t4.5 -25.5t-16 -28q-48 -51 -80 -16q-22 18 -260 260l-248 -248q-45 -45 -80 -10q-49 49 -19 82q18 15 263 260 q-255 255 -267 264q-12 18 -3 39.5z" />
<glyph unicode="&#xd9;" horiz-adv-x="655" d="M51 219v1225q-2 24 23 24h53q16 0 25 -7.5t10 -14.5v-8v-1196q2 0 0 -8t1.5 -21t7 -28.5t16.5 -31t29.5 -28.5t45.5 -21t66 -8q49 0 84.5 15t50.5 36.5t23 43t8 36.5v15v1198q0 13 7 20t14 8h7h56q13 0 19.5 -7t6.5 -14v-7v-1223q0 -92 -77 -160t-189 -69h-21 q-111 1 -188.5 69.5t-77.5 161.5zM146.5 1792q-1.5 -23 19.5 -37q94 -65 215 -119q18 -8 38 1t27 22q13 21 6.5 39t-36.5 41l-164 102q-20 13 -33 18.5t-27.5 2t-25.5 -20.5q-18 -26 -19.5 -49z" />
<glyph unicode="&#xda;" horiz-adv-x="655" d="M51 219v1225q-2 24 23 24h53q16 0 25 -7.5t10 -14.5v-8v-1196q2 0 0 -8t1.5 -21t7 -28.5t16.5 -31t29.5 -28.5t45.5 -21t66 -8q49 0 84.5 15t50.5 36.5t23 43t8 36.5v15v1198q0 13 7 20t14 8h7h56q13 0 19.5 -7t6.5 -14v-7v-1223q0 -92 -77 -160t-189 -69h-21 q-111 1 -188.5 69.5t-77.5 161.5zM203.5 1698q-6.5 -18 5.5 -39q7 -13 27 -22t38 -1q121 54 215 119q21 14 19.5 37t-19.5 49q-11 17 -25.5 20.5t-27.5 -2t-33 -18.5l-163 -102q-30 -23 -36.5 -41z" />
<glyph unicode="&#xdc;" horiz-adv-x="655" d="M51 219v1225q-2 24 23 24h53q16 0 25 -7.5t10 -14.5v-8v-1196q2 0 0 -8t1.5 -21t7 -28.5t16.5 -31t29.5 -28.5t45.5 -21t66 -8q49 0 84.5 15t50.5 36.5t23 43t8 36.5v15v1198q0 13 7 20t14 8h7h56q13 0 19.5 -7t6.5 -14v-7v-1223q0 -92 -77 -160t-189 -69h-21 q-111 1 -188.5 69.5t-77.5 161.5zM141 1714q0 -30 9.5 -56t27.5 -26q31 0 56.5 9.5t25.5 29.5v86q0 21 -20.5 34t-49.5 13q-30 0 -39.5 -16t-9.5 -74zM387 1714q0 -30 9.5 -56t27.5 -26q31 0 56.5 9.5t25.5 29.5v86q0 21 -20.5 34t-49.5 13q-30 0 -39.5 -16t-9.5 -74z" />
<glyph unicode="&#xe0;" horiz-adv-x="647" d="M51 328.5q0 70.5 17 152.5q33 115 98 174q126 108 280 148q-35 69 -69 92q-57 37 -105 37q-12 0 -21 8t-9 18l-4 35q0 13 9.5 25t22.5 12q106 5 195 -51q129 -81 129 -291l2 -620q0 -71 -64 -68h-239q-18 0 -40.5 5.5t-51 20t-54.5 37t-48 61t-35 86.5t-13 118.5z M170 362q0 -59 14 -105.5t36 -74t50.5 -45.5t54.5 -24.5t52 -6.5q63 0 84 12.5t18 57.5v490q0 24 -43 24q-20 0 -62 -23.5t-88.5 -63t-81 -105t-34.5 -136.5zM226.5 1368q-1.5 -23 19.5 -37q94 -65 215 -119q18 -8 38 1t27 22q13 21 6.5 39t-36.5 41l-164 102 q-20 13 -33 18.5t-27.5 2t-25.5 -20.5q-18 -26 -19.5 -49z" />
<glyph unicode="&#xe1;" horiz-adv-x="647" d="M51 328.5q0 70.5 17 152.5q33 115 98 174q126 108 280 148q-35 69 -69 92q-57 37 -105 37q-12 0 -21 8t-9 18l-4 35q0 13 9.5 25t22.5 12q106 5 195 -51q129 -81 129 -291l2 -620q0 -71 -64 -68h-239q-18 0 -40.5 5.5t-51 20t-54.5 37t-48 61t-35 86.5t-13 118.5z M170 362q0 -59 14 -105.5t36 -74t50.5 -45.5t54.5 -24.5t52 -6.5q63 0 84 12.5t18 57.5v490q0 24 -43 24q-20 0 -62 -23.5t-88.5 -63t-81 -105t-34.5 -136.5zM282.5 1274q-6.5 -18 6.5 -39q7 -13 27 -22t38 -1q121 54 215 119q21 14 19.5 37t-19.5 49q-11 17 -25.5 20.5 t-27.5 -2t-33 -18.5l-164 -102q-30 -23 -36.5 -41z" />
<glyph unicode="&#xe2;" horiz-adv-x="647" d="M51 328.5q0 70.5 17 152.5q33 115 98 174q126 108 280 148q-35 69 -69 92q-57 37 -105 37q-12 0 -21 8t-9 18l-4 35q0 13 9.5 25t22.5 12q106 5 195 -51q129 -81 129 -291l2 -620q0 -71 -64 -68h-239q-18 0 -40.5 5.5t-51 20t-54.5 37t-48 61t-35 86.5t-13 118.5z M170 362q0 -59 14 -105.5t36 -74t50.5 -45.5t54.5 -24.5t52 -6.5q63 0 84 12.5t18 57.5v490q0 24 -43 24q-20 0 -62 -23.5t-88.5 -63t-81 -105t-34.5 -136.5zM249 1279.5q0 18.5 15 29.5q1 1 35.5 28t58.5 43t37 19h35q12 -3 36 -19t57 -42.5t36 -28.5q26 -18 0 -68 q-28 -49 -74 0q-40 42 -75 62q-13 -9 -30.5 -24.5t-28.5 -26.5l-11 -11q-48 -48 -76 0q-15 20 -15 38.5z" />
<glyph unicode="&#xe3;" horiz-adv-x="647" d="M51 328.5q0 70.5 17 152.5q33 115 98 174q126 108 280 148q-35 69 -69 92q-57 37 -105 37q-12 0 -21 8t-9 18l-4 35q0 13 9.5 25t22.5 12q106 5 195 -51q129 -81 129 -291l2 -620q0 -71 -64 -68h-239q-18 0 -40.5 5.5t-51 20t-54.5 37t-48 61t-35 86.5t-13 118.5z M170 362q0 -59 14 -105.5t36 -74t50.5 -45.5t54.5 -24.5t52 -6.5q63 0 84 12.5t18 57.5v490q0 24 -43 24q-20 0 -62 -23.5t-88.5 -63t-81 -105t-34.5 -136.5zM184 1278q63 90 160 90q25 0 47 -10t33.5 -20.5t28.5 -28.5q29 -33 49 -37q36 -9 98 24q20 -20 23 -24 q14 -20 6 -55q-64 -31 -113 -31q-15 0 -35 4q-9 2 -17.5 5.5t-17 8.5t-13 8t-13 10.5t-10.5 9.5l-12 12l-9 9q-27 31 -45 31q-60 0 -94 -59q-20 3 -33 16q-24 16 -33 37z" />
<glyph unicode="&#xe4;" horiz-adv-x="647" d="M51 328.5q0 70.5 17 152.5q33 115 98 174q126 108 280 148q-35 69 -69 92q-57 37 -105 37q-12 0 -21 8t-9 18l-4 35q0 13 9.5 25t22.5 12q106 5 195 -51q129 -81 129 -291l2 -620q0 -71 -64 -68h-239q-18 0 -40.5 5.5t-51 20t-54.5 37t-48 61t-35 86.5t-13 118.5z M170 362q0 -59 14 -105.5t36 -74t50.5 -45.5t54.5 -24.5t52 -6.5q63 0 84 12.5t18 57.5v490q0 24 -43 24q-20 0 -62 -23.5t-88.5 -63t-81 -105t-34.5 -136.5zM221 1290q0 -30 9.5 -56t27.5 -26q31 0 56.5 9.5t25.5 29.5v86q0 21 -20.5 34t-49.5 13q-30 0 -39.5 -16t-9.5 -74 zM467 1290q0 -30 9.5 -56t27.5 -26q31 0 56.5 9.5t25.5 29.5v86q0 21 -20.5 34t-49.5 13q-30 0 -39.5 -16t-9.5 -74z" />
<glyph unicode="&#xe5;" horiz-adv-x="647" d="M51 328.5q0 70.5 17 152.5q33 115 98 174q126 108 280 148q-35 69 -69 92q-57 37 -105 37q-12 0 -21 8t-9 18l-4 35q0 13 9.5 25t22.5 12q106 5 195 -51q129 -81 129 -291l2 -620q0 -71 -64 -68h-239q-18 0 -40.5 5.5t-51 20t-54.5 37t-48 61t-35 86.5t-13 118.5z M170 362q0 -59 14 -105.5t36 -74t50.5 -45.5t54.5 -24.5t52 -6.5q63 0 84 12.5t18 57.5v490q0 24 -43 24q-20 0 -62 -23.5t-88.5 -63t-81 -105t-34.5 -136.5zM250 1405q0 72 43.5 121t112.5 49q68 0 107.5 -48.5t39.5 -121.5t-39.5 -121.5t-107.5 -48.5q-69 0 -112.5 49 t-43.5 121zM328 1405q0 -39 21 -64.5t57 -25.5q69 0 69 90t-69 90q-36 0 -57 -26t-21 -64z" />
<glyph unicode="&#xe7;" d="M51 272v480q-4 113 70.5 188.5t191.5 89.5q86 10 160 -14.5t121 -75.5q17 -17 19 -33t-8.5 -28.5t-23 -21t-26.5 -13.5q-14 -8 -29.5 -4t-23.5 9t-21 15.5t-22 14.5q-50 32 -107 32q-88 0 -132 -47.5t-46 -109.5v-484q2 -62 46 -109.5t132 -47.5q33 0 59 8.5t37.5 16.5 t30.5 24q57 39 90 43q25 0 36.5 -28t6.5 -52q0 -16 -6 -25q-40 -52 -106.5 -80.5t-143.5 -27.5v-39q54 0 84 -13.5t41 -54.5l15 -57q11 -42 0 -77.5t-39.5 -57.5t-65.5 -33.5t-80 -8t-82 20.5q0 1 -2.5 11.5t-4 16t-2.5 16t0 17.5t5 13.5t11 9.5q42 -14 73 -14q115 0 90 102 q-1 2 -2 9.5t-2.5 8.5t-5.5 5t-11.5 4t-20.5 1t-33 1h-54q-6 0 -10 3t-5 6l-1 3v121q-94 27 -150.5 98t-52.5 168z" />
<glyph unicode="&#xe8;" d="M51 281v471q-6 113 67.5 187.5t192.5 88.5q127 18 228 -47q48 -35 66.5 -84t-0.5 -124.5t-83 -166.5q-158 -199 -352 -241v-89q4 -62 48 -109.5t130 -47.5q49 0 109 35q6 3 30 20.5t43 27t35 9.5q30 0 43 -26.5t-8 -75.5q-47 -59 -124.5 -89t-164.5 -18 q-119 15 -192.5 90.5t-67.5 188.5zM162.5 1344q-1.5 -23 19.5 -37q94 -65 215 -119q18 -8 38.5 0.5t27.5 21.5q12 21 5.5 39t-36.5 41l-164 103q-20 13 -33 18.5t-27.5 2t-25.5 -20.5q-18 -26 -19.5 -49zM172 575q0 -33 9.5 -44t37.5 -11q16 0 72.5 41t113 98t81 117 t-24.5 98q-62 39 -113 39q-79 0 -122 -41.5t-54 -99.5v-197z" />
<glyph unicode="&#xe9;" d="M51 281v471q-6 113 67.5 187.5t192.5 88.5q127 18 228 -47q48 -35 66.5 -84t-0.5 -124.5t-83 -166.5q-158 -199 -352 -241v-89q4 -62 48 -109.5t130 -47.5q49 0 109 35q6 3 30 20.5t43 27t35 9.5q30 0 43 -26.5t-8 -75.5q-47 -59 -124.5 -89t-164.5 -18 q-119 15 -192.5 90.5t-67.5 188.5zM172 575q0 -33 9.5 -44t37.5 -11q16 0 72.5 41t113 98t81 117t-24.5 98q-62 39 -113 39q-79 0 -122 -41.5t-54 -99.5v-197zM219.5 1249q-6.5 -18 5.5 -39q7 -13 27.5 -21.5t38.5 -0.5q121 54 215 119q21 14 19.5 37t-19.5 49 q-11 17 -25.5 20.5t-27.5 -2t-33 -18.5l-164 -103q-30 -23 -36.5 -41z" />
<glyph unicode="&#xea;" d="M51 281v471q-6 113 67.5 187.5t192.5 88.5q127 18 228 -47q48 -35 66.5 -84t-0.5 -124.5t-83 -166.5q-158 -199 -352 -241v-89q4 -62 48 -109.5t130 -47.5q49 0 109 35q6 3 30 20.5t43 27t35 9.5q30 0 43 -26.5t-8 -75.5q-47 -59 -124.5 -89t-164.5 -18 q-119 15 -192.5 90.5t-67.5 188.5zM172 575q0 -33 9.5 -44t37.5 -11q16 0 72.5 41t113 98t81 117t-24.5 98q-62 39 -113 39q-79 0 -122 -41.5t-54 -99.5v-197zM186 1255.5q0 18.5 15 28.5q1 1 35.5 28t58.5 43t37 19h35q12 -3 36 -19t57 -42.5t36 -28.5q25 -18 0 -67 q-28 -49 -74 0q-41 41 -76 61q-13 -9 -30.5 -24t-28.5 -26l-11 -11q-48 -48 -75 0q-15 20 -15 38.5z" />
<glyph unicode="&#xeb;" d="M51 281v471q-6 113 67.5 187.5t192.5 88.5q127 18 228 -47q48 -35 66.5 -84t-0.5 -124.5t-83 -166.5q-158 -199 -352 -241v-89q4 -62 48 -109.5t130 -47.5q49 0 109 35q6 3 30 20.5t43 27t35 9.5q30 0 43 -26.5t-8 -75.5q-47 -59 -124.5 -89t-164.5 -18 q-119 15 -192.5 90.5t-67.5 188.5zM158 1266q0 -30 9.5 -56t27.5 -26q31 0 56 9.5t25 29.5v86q0 21 -20 34t-49 13q-30 0 -39.5 -16t-9.5 -74zM172 575q0 -33 9.5 -44t37.5 -11q16 0 72.5 41t113 98t81 117t-24.5 98q-62 39 -113 39q-79 0 -122 -41.5t-54 -99.5v-197z M403 1266q0 -30 9.5 -56t27.5 -26q31 0 56.5 9.5t25.5 29.5v86q0 21 -20 34t-49 13q-30 0 -40 -16t-10 -74z" />
<glyph unicode="&#xec;" horiz-adv-x="409" d="M50.5 1337q-1.5 -23 19.5 -37q90 -62 215 -118q18 -8 38 0.5t27 21.5q12 21 5.5 39t-36.5 41l-163 102q-20 13 -33 18.5t-27.5 2t-25.5 -20.5q-18 -26 -19.5 -49zM236 72q0 -72 43 -72q29 0 52 9.5t23 29.5v940q0 45 -69 45q-49 0 -49 -63v-889z" />
<glyph unicode="&#xed;" horiz-adv-x="409" d="M53.5 1305q-6.5 -18 5.5 -39q7 -13 27.5 -22t38.5 -1q121 54 215 119q21 14 19.5 37t-19.5 49q-11 17 -25.5 20.5t-27.5 -2t-33 -18.5l-164 -102q-30 -23 -36.5 -41zM84 72q0 -72 43 -72q29 0 52.5 9.5t23.5 29.5v940q0 45 -70 45q-49 0 -49 -63v-889z" />
<glyph unicode="&#xee;" horiz-adv-x="425" d="M53 1277.5q0 18.5 15 29.5q1 1 35.5 28t58.5 43t37 19h34q12 -3 36 -19t57 -42.5t36 -28.5q26 -18 0 -68q-28 -49 -73 0q-41 41 -76 61q-13 -9 -30.5 -24t-28.5 -26l-11 -11q-48 -48 -75 0q-15 20 -15 38.5zM152 72q0 -72 43 -72q29 0 52 9.5t23 29.5v940q0 45 -69 45 q-49 0 -49 -63v-889z" />
<glyph unicode="&#xef;" horiz-adv-x="446" d="M51 1362q0 -30 9.5 -56t27.5 -26q31 0 56.5 9.5t25.5 29.5v86q0 21 -20.5 34t-49.5 13q-30 0 -39.5 -16t-9.5 -74zM172 72q0 -72 43 -72q29 0 52.5 9.5t23.5 29.5v940q0 45 -70 45q-49 0 -49 -63v-889zM276 1362q0 -30 9.5 -56t27.5 -26q31 0 56.5 9.5t25.5 29.5v86 q0 21 -20 34t-49 13q-30 0 -40 -16t-10 -74z" />
<glyph unicode="&#xf1;" horiz-adv-x="694" d="M51 39v960q0 37 60 37q32 0 47.5 -11.5t15.5 -45.5q78 49 172 49q72 0 128 -21.5t86.5 -52t50.5 -68.5t26 -66t6 -50v-733q0 -22 -14.5 -29.5t-50.5 -7.5q-33 0 -45.5 8t-12.5 29v737q-11 52 -54 93.5t-118 41.5q-53 0 -93 -24.5t-58 -54t-25 -62.5v-729q0 -21 -13 -30 t-50 -9q-34 0 -46 8.5t-12 30.5zM121 1237q63 90 160 90q25 0 47 -10.5t33 -20.5t28 -28q29 -33 49 -37q36 -9 99 24q16 -16 22 -24q14 -21 6 -55q-64 -31 -112 -31q-15 0 -35 4q-9 2 -17.5 5.5t-17 8.5t-13 8t-13 10.5t-10.5 9.5l-11 11l-10 10q-27 31 -45 31 q-25 0 -47 -13t-32 -24t-16 -22q-19 3 -32 16q-24 16 -33 37z" />
<glyph unicode="&#xf2;" horiz-adv-x="722" d="M51 244v538q0 80 46 138.5t115 84.5t149.5 26t149.5 -26.5t115 -85t46 -137.5v-538q0 -79 -46 -137.5t-115 -85t-149.5 -26.5t-149.5 26t-115 84.5t-46 138.5zM166 272q0 -7 1.5 -18t13 -39t30 -49.5t57.5 -39t92 -17.5q57 0 98 17t58.5 40.5t27 47.5t9.5 41v17v482v18 t-9 39t-27 50t-59 39.5t-98 17.5q-53 0 -92 -17t-57.5 -41t-30 -48t-12.5 -41l-2 -17v-482zM170.5 1352q-1.5 -23 19.5 -37q92 -63 216 -119q18 -8 38 1t27 22q12 21 5.5 38.5t-36.5 40.5l-164 103q-20 13 -33 18.5t-27.5 2t-25.5 -20.5q-18 -26 -19.5 -49z" />
<glyph unicode="&#xf4;" horiz-adv-x="722" d="M51 244v538q0 80 46 138.5t115 84.5t149.5 26t149.5 -26.5t115 -85t46 -137.5v-538q0 -79 -46 -137.5t-115 -85t-149.5 -26.5t-149.5 26t-115 84.5t-46 138.5zM166 272q0 -7 1.5 -18t13 -39t30 -49.5t57.5 -39t92 -17.5q57 0 98 17t58.5 40.5t27 47.5t9.5 41v17v482v18 t-9 39t-27 50t-59 39.5t-98 17.5q-53 0 -92 -17t-57.5 -41t-30 -48t-12.5 -41l-2 -17v-482zM194 1263.5q0 18.5 15 28.5q1 1 35.5 28t58.5 43t37 19h35q12 -3 36 -19t57 -42.5t36 -28.5q25 -18 0 -67q-28 -49 -74 0q-41 41 -76 61q-13 -9 -30 -24t-28 -26l-11 -11 q-48 -48 -76 0q-15 20 -15 38.5z" />
<glyph unicode="&#xf5;" horiz-adv-x="722" d="M51 244v538q0 80 46 138.5t115 84.5t149.5 26t149.5 -26.5t115 -85t46 -137.5v-538q0 -79 -46 -137.5t-115 -85t-149.5 -26.5t-149.5 26t-115 84.5t-46 138.5zM129 1262q63 90 160 90q25 0 47 -10.5t32.5 -20.5t28.5 -29q29 -33 49 -37q35 -9 99 25q13 -13 22 -25 q14 -21 6 -55q-64 -31 -112 -31q-10 0 -35 5q-9 2 -17.5 5.5t-17 8.5t-13 8t-13 10.5t-10.5 9.5t-11 12l-10 9q-27 31 -45 31q-25 0 -47 -13t-31.5 -24.5t-15.5 -22.5q-19 3 -33 17q-24 16 -33 37zM166 272q0 -7 1.5 -18t13 -39t30 -49.5t57.5 -39t92 -17.5q57 0 98 17 t58.5 40.5t27 47.5t9.5 41v17v482v18t-9 39t-27 50t-59 39.5t-98 17.5q-53 0 -92 -17t-57.5 -41t-30 -48t-12.5 -41l-2 -17v-482z" />
<glyph unicode="&#xf6;" horiz-adv-x="722" d="M51 244v538q0 80 46 138.5t115 84.5t149.5 26t149.5 -26.5t115 -85t46 -137.5v-538q0 -79 -46 -137.5t-115 -85t-149.5 -26.5t-149.5 26t-115 84.5t-46 138.5zM166 272q0 -7 1.5 -18t13 -39t30 -49.5t57.5 -39t92 -17.5q57 0 98 17t58.5 40.5t27 47.5t9.5 41v17v482v18 t-9 39t-27 50t-59 39.5t-98 17.5q-53 0 -92 -17t-57.5 -41t-30 -48t-12.5 -41l-2 -17v-482zM166 1274q0 -30 9.5 -56t27.5 -26q31 0 56.5 9.5t25.5 29.5v86q0 21 -20.5 34t-49.5 13q-30 0 -39.5 -16t-9.5 -74zM412 1274q0 -30 9.5 -56t27.5 -26q31 0 56 9.5t25 29.5v86 q0 21 -20 34t-49 13q-30 0 -39.5 -16t-9.5 -74z" />
<glyph unicode="&#xf7;" horiz-adv-x="1048" d="M51 647q0 -29 9.5 -52.5t29.5 -23.5h862q45 0 45 70q0 49 -63 49h-811q-72 0 -72 -43zM446 231q0 -20 30 -33.5t61 -13.5q30 0 39.5 16t9.5 74q0 30 -9.5 56t-27.5 26q-35 0 -69 -10t-34 -29v-86zM446 922q0 -20 30 -34t61 -14q30 0 39.5 16.5t9.5 74.5q0 30 -9.5 56 t-27.5 26q-35 0 -69 -10t-34 -29v-86z" />
<glyph unicode="&#xf9;" horiz-adv-x="696" d="M51 262v735q0 22 14.5 28.5t51.5 6.5q34 0 45.5 -7.5t11.5 -27.5v-739q11 -52 54 -93.5t118 -41.5q79 0 123 44t53 97v731q0 21 13.5 29t50.5 8q35 0 47 -7.5t12 -29.5v-964q0 -37 -61 -37q-32 0 -48 11.5t-16 45.5q-78 -49 -172 -49q-72 0 -128 21.5t-86.5 52.5 t-50.5 69.5t-26 66.5t-6 50zM156.5 1340q-1.5 -23 19.5 -37q94 -65 215 -119q18 -8 38.5 0.5t27.5 21.5q12 21 5.5 39t-36.5 41l-164 103q-20 13 -33 18.5t-27.5 2t-25.5 -20.5q-18 -26 -19.5 -49z" />
<glyph unicode="&#xfa;" horiz-adv-x="696" d="M51 262v735q0 22 14.5 28.5t51.5 6.5q34 0 45.5 -7.5t11.5 -27.5v-739q11 -52 54 -93.5t118 -41.5q79 0 123 44t53 97v731q0 21 13.5 29t50.5 8q35 0 47 -7.5t12 -29.5v-964q0 -37 -61 -37q-32 0 -48 11.5t-16 45.5q-78 -49 -172 -49q-72 0 -128 21.5t-86.5 52.5 t-50.5 69.5t-26 66.5t-6 50zM213.5 1245q-6.5 -18 5.5 -39q7 -13 27.5 -21.5t38.5 -0.5q121 54 215 119q21 14 19.5 37t-19.5 49q-11 17 -25.5 20.5t-27.5 -2t-33 -18.5l-164 -103q-30 -23 -36.5 -41z" />
<glyph unicode="&#xfb;" horiz-adv-x="696" d="M51 262v735q0 22 14.5 28.5t51.5 6.5q34 0 45.5 -7.5t11.5 -27.5v-739q11 -52 54 -93.5t118 -41.5q79 0 123 44t53 97v731q0 21 13.5 29t50.5 8q35 0 47 -7.5t12 -29.5v-964q0 -37 -61 -37q-32 0 -48 11.5t-16 45.5q-78 -49 -172 -49q-72 0 -128 21.5t-86.5 52.5 t-50.5 69.5t-26 66.5t-6 50zM180 1251q0 19 15 29q1 1 35.5 28t58.5 43t37 19h34q12 -3 36 -19t57 -42.5t36 -28.5q26 -18 0 -68q-28 -49 -73 0q-41 42 -76 62q-13 -9 -30.5 -24.5t-28.5 -26.5l-11 -11q-48 -48 -75 0q-15 20 -15 39z" />
<glyph unicode="&#xfc;" horiz-adv-x="696" d="M51 262v735q0 22 14.5 28.5t51.5 6.5q34 0 45.5 -7.5t11.5 -27.5v-739q11 -52 54 -93.5t118 -41.5q79 0 123 44t53 97v731q0 21 13.5 29t50.5 8q35 0 47 -7.5t12 -29.5v-964q0 -37 -61 -37q-32 0 -48 11.5t-16 45.5q-78 -49 -172 -49q-72 0 -128 21.5t-86.5 52.5 t-50.5 69.5t-26 66.5t-6 50zM152 1262q0 -30 9 -56t27 -26q31 0 56.5 9.5t25.5 29.5v86q0 21 -20 34t-49 13q-30 0 -39.5 -16t-9.5 -74zM397 1262q0 -30 9.5 -56t27.5 -26q31 0 56.5 9.5t25.5 29.5v86q0 21 -20.5 34t-49.5 13q-30 0 -39.5 -16t-9.5 -74z" />
<glyph unicode="&#x2c6;" horiz-adv-x="425" d="M53 1257.5q0 18.5 15 28.5q1 1 35.5 28t58.5 43t37 19h34q12 -3 36 -19t57 -42.5t36 -28.5q25 -18 0 -67q-28 -49 -73 0q-41 41 -76 61q-13 -9 -30.5 -24t-28.5 -26l-11 -11q-48 -48 -75 0q-15 20 -15 38.5z" />
<glyph unicode="&#x2dc;" horiz-adv-x="2109" d="M866 1436q63 90 160 90q25 0 47 -10.5t33.5 -21t28.5 -28.5q28 -32 49 -36q36 -9 98 24q20 -20 23 -24q14 -21 6 -56q-64 -31 -113 -31q-10 0 -35 5q-9 2 -17.5 5.5t-17 8.5t-13 8t-13 10.5t-10.5 9.5l-12 12l-9 9q-27 31 -45 31q-25 0 -47 -13t-31.5 -24.5t-15.5 -22.5 q-19 3 -33 17q-24 16 -33 37z" />
<glyph unicode="&#x2000;" horiz-adv-x="993" />
<glyph unicode="&#x2001;" horiz-adv-x="1987" />
<glyph unicode="&#x2002;" horiz-adv-x="993" />
<glyph unicode="&#x2003;" horiz-adv-x="1987" />
<glyph unicode="&#x2004;" horiz-adv-x="662" />
<glyph unicode="&#x2005;" horiz-adv-x="496" />
<glyph unicode="&#x2006;" horiz-adv-x="331" />
<glyph unicode="&#x2007;" horiz-adv-x="331" />
<glyph unicode="&#x2008;" horiz-adv-x="248" />
<glyph unicode="&#x2009;" horiz-adv-x="397" />
<glyph unicode="&#x200a;" horiz-adv-x="110" />
<glyph unicode="&#x2010;" horiz-adv-x="970" d="M51 604q0 -29 9.5 -52.5t29.5 -23.5h784q23 0 34.5 20t11.5 50q0 49 -64 49h-733q-72 0 -72 -43z" />
<glyph unicode="&#x2011;" horiz-adv-x="970" d="M51 604q0 -29 9.5 -52.5t29.5 -23.5h784q23 0 34.5 20t11.5 50q0 49 -64 49h-733q-72 0 -72 -43z" />
<glyph unicode="&#x2012;" horiz-adv-x="970" d="M51 604q0 -29 9.5 -52.5t29.5 -23.5h784q23 0 34.5 20t11.5 50q0 49 -64 49h-733q-72 0 -72 -43z" />
<glyph unicode="&#x2013;" horiz-adv-x="729" d="M51 604q0 -29 9.5 -52.5t29.5 -23.5h543q45 0 45 70q0 49 -64 49h-491q-72 0 -72 -43z" />
<glyph unicode="&#x2014;" horiz-adv-x="1638" d="M51 680q0 -29 9.5 -52.5t29.5 -23.5h1452q45 0 45 70q0 49 -63 49h-1401q-72 0 -72 -43z" />
<glyph unicode="&#x2018;" horiz-adv-x="305" d="M92 1391q12 -125 12 -156q0 -24 10.5 -46t28.5 -22q20 0 37 20.5t17 37.5q0 11 5 89t5 93q0 41 -68 41q-28 0 -37.5 -14.5t-9.5 -42.5z" />
<glyph unicode="&#x2019;" horiz-adv-x="313" d="M92 1391q12 -125 12 -156q0 -24 10.5 -46t28.5 -22q20 0 37 20.5t17 37.5q0 11 5 89t5 93q0 41 -68 41q-28 0 -37.5 -14.5t-9.5 -42.5z" />
<glyph unicode="&#x201a;" horiz-adv-x="266" d="M51.5 -115.5q1.5 12.5 2.5 21t4.5 23t5 21.5t5.5 20t5 16q1 4 -10 20t-9 33q3 10 7.5 23.5l7.5 22.5t4 15q10 27 39.5 33.5t62.5 -6.5q33 -10 37.5 -38t-10.5 -62q-31 -99 -45 -140q-27 -81 -80 -63q-8 3 -14 8.5t-8.5 14t-4 17t0 21z" />
<glyph unicode="&#x201c;" horiz-adv-x="583" d="M54.5 1315q5.5 17 19.5 41q48 90 71 127q42 75 91 47q10 -5 15 -14t3.5 -22.5t-3 -23.5t-9 -28t-11 -26t-12.5 -26.5t-10 -19.5q-1 -3 6 -21.5t2 -33.5q-29 -53 -31 -58q-15 -24 -44.5 -25t-59.5 19q-21 12 -27 29.5t-0.5 34.5zM332.5 1315q5.5 17 19.5 41q49 90 72 127 q42 75 90 47q10 -5 15 -14t3.5 -22.5t-3 -23.5t-9 -28t-11 -26t-12.5 -26.5t-10 -19.5q-1 -3 6.5 -21.5t2.5 -33.5q-29 -53 -31 -58q-15 -24 -45 -25t-60 19q-21 12 -27 29.5t-0.5 34.5z" />
<glyph unicode="&#x201d;" horiz-adv-x="593" d="M70 1292q-44 25 28 152l4 8q2 4 -4 22t0 33q30 50 33 56q16 24 44.5 23.5t60.5 -21.5q20 -14 25 -32t-0.5 -34t-20.5 -41q-53 -86 -80 -123q-38 -73 -90 -43zM332.5 1308.5q-3.5 13.5 3.5 35t12 34t18.5 38.5t14.5 28q4 5 -2 23.5t-2 31.5q7 12 19.5 31.5t15.5 25.5 q16 24 44 23t60 -23q21 -13 25.5 -30t-1.5 -32.5t-22 -41.5q-53 -86 -78 -123q-45 -76 -92 -41q-12 7 -15.5 20.5z" />
<glyph unicode="&#x201e;" horiz-adv-x="266" d="M51.5 -115.5q1.5 12.5 2.5 21t4.5 23t5 21.5t5.5 20t5 16q1 4 -10 20t-9 33q3 10 7.5 23.5l7.5 22.5t4 15q10 27 39.5 33.5t62.5 -6.5q33 -10 37.5 -38t-10.5 -62q-31 -99 -45 -140q-27 -81 -80 -63q-8 3 -14 8.5t-8.5 14t-4 17t0 21z" />
<glyph unicode="&#x2022;" horiz-adv-x="466" d="M51 662q0 75 53.5 128.5t128.5 53.5t129 -53.5t54 -128.5q0 -76 -54 -130.5t-129 -54.5t-128.5 54.5t-53.5 130.5z" />
<glyph unicode="&#x2026;" horiz-adv-x="1277" d="M51 90q0 -39 12.5 -73.5t36.5 -34.5q40 0 74.5 13t34.5 38v114q0 27 -27 44.5t-65 17.5q-40 0 -53 -21t-13 -98zM561 90q0 -39 12.5 -73.5t36.5 -34.5q40 0 74.5 13t34.5 38v114q0 27 -27 44.5t-65 17.5q-40 0 -53 -21t-13 -98zM1069 90q0 -39 12.5 -73.5t36.5 -34.5 q40 0 74.5 13t34.5 38v114q0 27 -27 44.5t-65 17.5q-40 0 -53 -21t-13 -98z" />
<glyph unicode="&#x202f;" horiz-adv-x="397" />
<glyph unicode="&#x2039;" horiz-adv-x="524" d="M54.5 602.5q7.5 20.5 29.5 42.5q275 277 293 293q19 16 39.5 10t40.5 -28q37 -34 -11 -78l-245 -248l245 -248q48 -44 11 -78q-20 -22 -40.5 -28t-39.5 10l-318 317q-12 15 -4.5 35.5z" />
<glyph unicode="&#x203a;" horiz-adv-x="524" d="M68 268q47 -50 79 -18l318 317q12 15 4.5 35.5t-29.5 42.5q-275 277 -293 293q-32 32 -79 -18q-37 -34 10 -78l246 -248l-246 -248q-47 -44 -10 -78z" />
<glyph unicode="&#x205f;" horiz-adv-x="496" />
<glyph unicode="&#x20ac;" horiz-adv-x="778" d="M51 653q0 39 72 39h76v76h-109q-20 0 -29.5 21t-9.5 47q0 38 72 38h76v338q-4 98 75 170t181 72q123 0 197.5 -60t74.5 -155q0 -27 -28.5 -36.5t-57.5 -1t-29 23.5q0 41 -46.5 84t-108.5 43q-73 0 -111.5 -42t-40.5 -93v-343h250q63 0 63 -45q0 -61 -45 -61h-268v-76h250 q63 0 63 -43q0 -63 -45 -63h-268v-369q2 -52 40.5 -93.5t111.5 -41.5q62 0 108.5 42t46.5 83q0 15 29 24t57.5 -0.5t28.5 -37.5q0 -96 -90 -162.5t-211 -53.5q-101 12 -166 78.5t-61 161.5v369h-109q-20 0 -29.5 20.5t-9.5 46.5z" />
<glyph unicode="&#x2122;" horiz-adv-x="1454" d="M51 1399q0 22 21 44.5t39 22.5h501q43 0 43 -59q0 -49 -61 -49h-143q-35 0 -41 -29v-1304q0 -16 -21 -24.5t-47 -8.5q-42 0 -45 43v1302q0 23 -18 23h-158q-70 0 -70 39zM758 33v1401q-1 17 9.5 24.5t26 6.5t31.5 -4t27 -7l12 -4v-2l205 -504q205 443 225 502 q10 20 80 20q11 0 18.5 -9.5t7.5 -17.5t-1 -9v-1397q0 -43 -35 -43q-24 0 -47 9.5t-23 25.5v1099l-182 -364q-10 -21 -42.5 -26t-39.5 7q0 4 -42 100.5t-83.5 191.5t-40.5 91v-1099q0 -16 -22.5 -25.5t-46.5 -9.5q-37 0 -37 43z" />
<glyph unicode="&#x25fc;" horiz-adv-x="1034" d="M0 0v1034h1034v-1034h-1034z" />
</font>
</defs>
</svg>
